<?xml version="1.0" encoding="UTF-8" standalone="no"?>
<!-- Creator: CorelDRAW X6 -->

<svg
   xmlns:dc="http://purl.org/dc/elements/1.1/"
   xmlns:cc="http://creativecommons.org/ns#"
   xmlns:rdf="http://www.w3.org/1999/02/22-rdf-syntax-ns#"
   xmlns:svg="http://www.w3.org/2000/svg"
   xmlns="http://www.w3.org/2000/svg"
   xmlns:sodipodi="http://sodipodi.sourceforge.net/DTD/sodipodi-0.dtd"
   xmlns:inkscape="http://www.inkscape.org/namespaces/inkscape"
   xml:space="preserve"
   width="109.08"
   height="180.99001"
   version="1.1"
   shape-rendering="geometricPrecision"
   text-rendering="geometricPrecision"
   image-rendering="optimizeQuality"
   clip-rule="evenodd"
   viewBox="0 0 1211.9999 2011.0001"
   id="svg2"
   inkscape:version="0.48.5 r10040"
   sodipodi:docname="photon_particle_smd_schematic.svg"
   style="fill-rule:evenodd"><metadata
     id="metadata160"><rdf:RDF><cc:Work
         rdf:about=""><dc:format>image/svg+xml</dc:format><dc:type
           rdf:resource="http://purl.org/dc/dcmitype/StillImage" /><dc:title></dc:title></cc:Work></rdf:RDF></metadata><defs
     id="defs158" /><sodipodi:namedview
     pagecolor="#ffffff"
     bordercolor="#666666"
     borderopacity="1"
     objecttolerance="10"
     gridtolerance="10"
     guidetolerance="10"
     inkscape:pageopacity="0"
     inkscape:pageshadow="2"
     inkscape:window-width="1012"
     inkscape:window-height="712"
     id="namedview156"
     showgrid="false"
     inkscape:zoom="4.6943678"
     inkscape:cx="20.456603"
     inkscape:cy="136.68594"
     inkscape:window-x="0"
     inkscape:window-y="0"
     inkscape:window-maximized="0"
     inkscape:current-layer="svg2"
     fit-margin-top="0"
     fit-margin-left="0"
     fit-margin-right="0"
     fit-margin-bottom="0" /><g
     id="g3419"><g
       transform="matrix(1,0,0,1.198544,5.9999576,-13.86163)"
       id="g6"><path
         d="m 1100,106 -1000,0 0,-11 1000,0 5,5 -5,6 z m 0,0 0,-11 0,0 0,0 1,0 0,0 0,0 0,0 1,0 0,1 0,0 0,0 1,0 0,0 0,0 0,0 0,0 1,1 0,0 0,0 0,0 0,0 0,1 1,0 0,0 0,0 0,1 0,0 0,0 0,0 0,1 0,0 0,0 0,0 0,1 0,0 0,0 0,0 0,1 0,0 0,0 0,0 0,1 0,0 -1,0 0,0 0,1 0,0 0,0 0,0 -1,0 0,0 0,1 0,0 0,0 -1,0 0,0 0,0 0,0 -1,0 0,1 0,0 0,0 -1,0 0,0 0,0 z m -5,1494 0,-1500 10,0 0,1500 -5,6 -5,-6 z m 0,0 10,0 0,1 0,0 0,0 0,0 0,1 0,0 0,0 0,0 0,1 0,0 -1,0 0,0 0,1 0,0 0,0 0,0 -1,0 0,0 0,1 0,0 0,0 -1,0 0,0 0,0 0,0 -1,0 0,0 0,1 0,0 -1,0 0,0 0,0 0,0 -1,0 0,0 0,0 0,-1 -1,0 0,0 0,0 0,0 -1,0 0,0 0,0 0,0 0,-1 -1,0 0,0 0,0 0,0 0,0 0,-1 -1,0 0,0 0,0 0,-1 0,0 0,0 0,0 0,-1 0,0 0,0 0,0 0,-1 z m -995,-5 1000,0 0,11 -1000,0 -5,-6 5,-5 z m 0,0 0,11 0,0 -1,0 0,0 0,0 0,-1 -1,0 0,0 0,0 0,0 -1,0 0,0 0,0 0,0 0,-1 -1,0 0,0 0,0 0,0 0,0 0,-1 -1,0 0,0 0,0 0,-1 0,0 0,0 0,0 0,-1 0,0 0,0 0,0 0,-1 0,0 0,0 0,0 0,-1 0,0 0,0 0,0 0,-1 0,0 0,0 0,0 1,-1 0,0 0,0 0,0 0,0 0,-1 1,0 0,0 0,0 0,0 0,0 1,0 0,-1 0,0 0,0 1,0 0,0 0,0 0,0 1,0 0,0 z m 5,-1495 0,1500 -10,0 0,-1500 5,-5 5,5 z m 0,0 -10,0 0,0 0,0 0,0 0,-1 0,0 0,0 0,0 0,-1 0,0 0,0 0,0 1,-1 0,0 0,0 0,0 0,0 0,-1 1,0 0,0 0,0 0,0 0,0 1,0 0,0 0,-1 0,0 1,0 0,0 0,0 0,0 1,0 0,0 0,0 0,0 1,0 0,0 0,0 0,0 1,0 0,1 0,0 0,0 1,0 0,0 0,0 0,0 0,0 1,1 0,0 0,0 0,0 0,0 0,1 1,0 0,0 0,0 0,1 0,0 0,0 0,0 0,1 0,0 0,0 0,0 z"
         id="path8"
         inkscape:connector-curvature="0"
         style="fill:#000000;fill-rule:nonzero" /></g><path
       d="m 393.99996,141 5,0 -11,34 -4,0 -12,-34 5,0 7,22 c 0,1 0,2 1,4 0,1 0,2 1,3 0,-1 0,-2 1,-3 0,-2 0,-3 1,-5 l 6,-21 z m 19,34 -12,0 0,-2 4,-1 0,-27 -4,-1 0,-3 12,0 0,3 -4,1 0,27 4,1 0,2 z m 32,0 -6,0 -15,-28 -1,0 c 0,1 1,2 1,4 0,1 0,2 0,3 0,1 0,2 0,3 l 0,18 -4,0 0,-34 5,0 16,28 0,0 c 0,-1 0,-2 0,-4 0,0 0,0 0,-1 0,-1 -1,-1 -1,-2 0,0 0,-1 0,-1 0,-1 0,-1 0,-1 l 0,-19 5,0 0,34 z"
       id="path10"
       inkscape:connector-curvature="0"
       style="fill:#000000;fill-rule:nonzero" /><path
       d="m 179.99996,421 -4,0 0,-30 -10,0 0,-4 24,0 0,4 -10,0 0,30 z m 36,0 -5,0 -8,-15 -8,15 -5,0 11,-18 -10,-16 5,0 7,13 8,-13 4,0 -9,16 10,18 z"
       id="path12"
       inkscape:connector-curvature="0"
       style="fill:#000000;fill-rule:nonzero" /><path
       d="m 174.99996,507 0,14 -5,0 0,-34 9,0 c 4,0 7,1 9,3 2,1 3,4 3,7 0,1 -1,2 -1,3 0,1 -1,2 -1,3 -1,1 -2,1 -3,2 0,0 -1,1 -2,1 l 9,15 -5,0 -8,-14 -5,0 z m 0,-3 3,0 c 2,0 3,-1 4,-1 1,0 2,-1 2,-1 1,-1 1,-1 2,-2 0,-1 0,-2 0,-3 0,-1 0,-2 0,-3 -1,0 -1,-1 -2,-1 0,-1 -1,-1 -2,-2 -1,0 -2,0 -4,0 l -3,0 0,13 z m 44,17 -4,0 -9,-15 -8,15 -4,0 10,-18 -10,-16 5,0 8,13 7,-13 5,0 -10,16 10,18 z"
       id="path14"
       inkscape:connector-curvature="0"
       style="fill:#000000;fill-rule:nonzero" /><path
       d="m 590.99996,149 c 0,1 0,2 0,3 -1,1 -1,2 -2,3 0,0 -1,1 -2,1 -1,1 -2,1 -3,1 l 0,0 c 3,1 5,2 6,3 2,1 2,3 2,5 0,2 0,3 0,4 -1,2 -2,3 -3,4 -1,0 -2,1 -3,2 -2,0 -4,0 -6,0 -2,0 -3,0 -5,0 -1,0 -3,-1 -4,-1 l 0,-4 c 2,0 3,1 5,1 1,1 3,1 4,1 1,0 3,0 4,-1 1,0 2,0 2,-1 1,-1 1,-1 2,-2 0,-1 0,-2 0,-3 0,-1 0,-2 0,-2 -1,-1 -1,-2 -2,-2 -1,-1 -2,-1 -3,-1 -1,-1 -2,-1 -4,-1 l -3,0 0,-3 3,0 c 2,0 3,0 4,-1 1,0 1,0 2,-1 1,-1 1,-1 2,-2 0,-1 0,-2 0,-3 0,0 0,-1 0,-2 -1,0 -1,-1 -1,-1 -1,-1 -2,-1 -2,-1 -1,-1 -2,-1 -3,-1 -1,0 -3,1 -4,1 -1,1 -2,1 -4,2 l -2,-3 c 1,0 2,-1 2,-1 1,0 2,-1 3,-1 0,0 1,-1 2,-1 1,0 2,0 3,0 2,0 3,0 5,0 1,1 2,1 3,2 1,1 1,2 2,3 0,1 0,2 0,3 z m 26,-8 5,0 -11,34 -5,0 -11,-34 5,0 7,22 c 0,1 0,2 1,4 0,1 0,2 1,3 0,-1 0,-2 0,-3 1,-2 1,-3 2,-5 l 6,-21 z m 27,8 c 0,1 0,2 -1,3 0,1 0,2 -1,3 -1,0 -1,1 -2,1 -1,1 -2,1 -3,1 l 0,0 c 2,1 4,2 6,3 1,1 2,3 2,5 0,2 0,3 -1,4 0,2 -1,3 -2,4 -1,0 -2,1 -4,2 -1,0 -3,0 -5,0 -2,0 -4,0 -5,0 -2,0 -3,-1 -4,-1 l 0,-4 c 1,0 3,1 4,1 2,1 3,1 5,1 1,0 2,0 3,-1 1,0 2,0 3,-1 0,-1 1,-1 1,-2 1,-1 1,-2 1,-3 0,-1 0,-2 -1,-2 0,-1 -1,-2 -2,-2 0,-1 -1,-1 -2,-1 -1,-1 -3,-1 -4,-1 l -3,0 0,-3 3,0 c 1,0 2,0 3,-1 1,0 2,0 3,-1 0,-1 1,-1 1,-2 1,-1 1,-2 1,-3 0,0 0,-1 -1,-2 0,0 0,-1 -1,-1 0,-1 -1,-1 -2,-1 0,-1 -1,-1 -2,-1 -2,0 -3,1 -4,1 -2,1 -3,1 -4,2 l -2,-3 c 1,0 1,-1 2,-1 1,0 1,-1 2,-1 1,0 2,-1 3,-1 1,0 2,0 3,0 2,0 3,0 4,0 2,1 3,1 3,2 1,1 2,2 2,3 1,1 1,2 1,3 z"
       id="path16"
       inkscape:connector-curvature="0"
       style="fill:#000000;fill-rule:nonzero" /><path
       d="m 174.99996,208 0,14 -5,0 0,-34 9,0 c 4,0 7,1 9,3 2,1 3,4 3,7 0,1 -1,2 -1,3 0,1 -1,2 -1,3 -1,1 -2,1 -3,2 0,0 -1,0 -2,1 l 9,15 -5,0 -8,-14 -5,0 z m 0,-4 3,0 c 2,0 3,0 4,0 1,0 2,-1 2,-1 1,-1 1,-2 2,-2 0,-1 0,-2 0,-3 0,-1 0,-2 0,-3 -1,-1 -1,-1 -2,-2 0,0 -1,-1 -2,-1 -1,0 -2,0 -4,0 l -3,0 0,12 z m 41,9 c 0,1 0,3 -1,4 0,1 -1,2 -2,3 -1,1 -2,1 -4,2 -1,0 -3,0 -4,0 -2,0 -4,0 -5,0 -2,0 -3,-1 -4,-1 l 0,-4 c 1,0 1,0 2,0 0,1 1,1 2,1 1,0 1,0 2,0 1,1 2,1 2,1 3,0 5,-1 6,-2 1,-1 2,-2 2,-4 0,-1 0,-1 -1,-2 0,-1 0,-1 -1,-2 0,0 -1,-1 -2,-1 -1,-1 -2,-1 -4,-2 -1,0 -2,-1 -3,-1 -1,-1 -2,-2 -3,-3 0,0 -1,-1 -1,-2 0,-1 -1,-2 -1,-4 0,-1 1,-2 1,-3 1,-1 1,-2 2,-3 1,-1 2,-1 3,-2 2,0 3,0 5,0 1,0 3,0 4,0 2,1 3,1 4,2 l -1,3 c -1,0 -2,-1 -4,-1 -1,0 -2,0 -3,0 -2,0 -4,0 -5,1 -1,1 -1,2 -1,3 0,1 0,2 0,3 0,0 1,1 1,1 1,1 1,1 2,2 1,0 2,1 4,1 1,1 2,1 3,2 1,0 2,1 3,2 1,1 1,1 1,2 1,1 1,3 1,4 z m 16,9 -4,0 0,-30 -9,0 0,-4 23,0 0,4 -10,0 0,30 z"
       id="path18"
       inkscape:connector-curvature="0"
       style="fill:#000000;fill-rule:nonzero" /><path
       d="m 473.99996,1849 11,0 0,16 c -1,0 -2,1 -3,1 0,0 -1,0 -2,0 -1,1 -2,1 -3,1 -1,0 -2,0 -3,0 -3,0 -5,-1 -7,-1 -1,-1 -3,-2 -4,-4 -2,-1 -3,-3 -3,-5 -1,-2 -1,-5 -1,-7 0,-3 0,-5 1,-8 1,-2 2,-4 3,-5 1,-1 3,-3 5,-3 2,-1 5,-2 7,-2 2,0 4,1 5,1 2,0 3,1 4,1 l -1,4 c -1,0 -1,0 -2,-1 -1,0 -1,0 -2,0 -1,0 -1,-1 -2,-1 -1,0 -1,0 -2,0 -2,0 -4,0 -5,1 -2,1 -3,2 -4,3 -1,1 -1,2 -2,4 0,2 -1,4 -1,6 0,2 1,3 1,5 0,2 1,3 2,4 1,2 2,2 4,3 1,1 3,1 5,1 0,0 1,0 2,0 0,0 1,0 1,0 1,0 1,0 2,0 0,0 0,0 1,-1 l 0,-10 -7,0 0,-3 z m 44,17 -5,0 -16,-27 0,0 c 0,1 0,2 0,3 0,1 0,2 0,3 0,1 0,2 0,3 l 0,18 -4,0 0,-33 5,0 16,27 0,0 c 0,-1 0,-2 0,-3 0,0 0,-1 0,-1 0,-1 0,-2 0,-2 0,-1 0,-1 0,-1 0,-1 0,-1 0,-2 l 0,-18 4,0 0,33 z m 34,-17 c 0,3 0,6 -1,8 -1,2 -2,4 -3,5 -2,2 -3,3 -5,3 -2,1 -5,1 -7,1 l -9,0 0,-33 10,0 c 2,0 4,0 6,1 2,1 3,2 5,3 1,1 2,3 3,5 1,2 1,5 1,7 z m -5,0 c 0,-2 0,-4 0,-5 -1,-2 -2,-3 -3,-4 0,-1 -2,-2 -3,-3 -1,0 -3,-1 -5,-1 l -4,0 0,27 3,0 c 4,0 7,-1 9,-4 2,-2 3,-5 3,-10 z"
       id="path20"
       inkscape:connector-curvature="0"
       style="fill:#000000;fill-rule:nonzero" /><path
       d="m 1011,1005 c 0,3 -1,6 -1,8 -1,2 -2,4 -4,5 -1,2 -3,3 -5,3 -2.00004,1 -4.00004,1 -7.00004,1 l -8,0 0,-33 9,0 c 3,0 5,0 7.00004,1 2,1 3,2 5,3 1,1 2,3 3,5 0,2 1,5 1,7 z m -5,0 c 0,-2 0,-4 -1,-5 0,-2 -1,-3 -2,-4 -1,-1 -2,-2 -3.00004,-3 -2,0 -3,0 -5,0 l -5,0 0,26 4,0 c 4,0 7.00004,-1 9.00004,-4 2,-2 3,-5 3,-10 z m 14,17 13,-29 -17,0 0,-4 21,0 0,3 -12,30 -5,0 z"
       id="path22"
       inkscape:connector-curvature="0"
       style="fill:#000000;fill-rule:nonzero" /><path
       d="m 1011,1105 c 0,3 -1,6 -1,8 -1,2 -2,4 -4,5 -1,2 -3,3 -5,3 -2.00004,1 -4.00004,1 -7.00004,1 l -8,0 0,-33 9,0 c 3,0 5,0 7.00004,1 2,1 3,2 4,3 2,1 3,3 4,5 0,2 1,5 1,7 z m -5,0 c 0,-2 0,-4 -1,-5 0,-2 -1,-3 -2,-4 -1,-1 -2,-2 -3.00004,-3 -2,0 -3,-1 -5,-1 l -5,0 0,27 4,0 c 4,0 7.00004,-1 9.00004,-4 2,-2 3,-5 3,-10 z m 10,3 c 0,-2 0,-3 0,-5 1,-1 1,-3 1,-4 1,-2 1,-3 2,-4 1,-2 1,-3 3,-4 1,-1 2,-1 3,-2 2,0 4,-1 6,-1 0,0 0,0 1,0 0,0 0,0 1,0 0,1 1,1 1,1 0,0 0,0 1,0 l 0,3 c -1,0 -1,0 -2,0 -1,0 -1,0 -2,0 -1,0 -3,0 -4,0 -1,1 -2,1 -2,2 -1,0 -2,1 -2,2 -1,1 -1,2 -2,3 0,1 0,2 0,3 0,1 0,2 -1,3 l 1,0 c 0,0 0,-1 1,-1 0,-1 1,-1 1,-1 1,-1 2,-1 2,-1 1,0 2,-1 3,-1 1,0 3,1 4,1 1,1 2,1 3,2 1,1 1,2 2,3 0,2 0,3 0,5 0,1 0,3 0,4 -1,2 -2,3 -2,4 -1,1 -2,2 -4,2 -1,1 -2,1 -4,1 -1,0 -3,0 -4,-1 -2,-1 -3,-2 -4,-3 -1,-1 -1,-2 -2,-4 -1,-2 -1,-4 -1,-7 z m 11,11 c 1,0 2,0 3,0 0,0 1,-1 2,-2 0,0 0,-1 1,-2 0,-1 0,-2 0,-3 0,-1 0,-2 0,-3 0,-1 -1,-2 -1,-2 -1,-1 -1,-2 -2,-2 -1,0 -2,0 -3,0 -1,0 -2,0 -3,0 0,1 -1,1 -2,2 0,0 -1,1 -1,2 0,0 -1,1 -1,2 0,1 1,2 1,3 0,1 0,2 1,3 1,0 1,1 2,2 1,0 2,0 3,0 z"
       id="path24"
       inkscape:connector-curvature="0"
       style="fill:#000000;fill-rule:nonzero" /><path
       d="m 1011,1205 c 0,3 0,6 -1,8 -1,2 -2,4 -3,5 -2,2 -3,3 -5,3 -2.00004,1 -5.00004,1 -7.00004,1 l -9,0 0,-33 10,0 c 2,0 4,0 6.00004,1 2,1 4,2 5,3 1,1 2,3 3,5 1,2 1,5 1,7 z m -4,0 c 0,-2 -1,-4 -1,-5 -1,-2 -1,-3 -2,-4 -1,-1 -3,-2 -4.00004,-3 -1,0 -3,-1 -5,-1 l -4,0 0,27 3,0 c 4,0 7.00004,-1 10.00004,-4 2,-2 3,-5 3,-10 z m 19,-3 c 2,0 3,0 5,0 1,1 2,2 3,2 1,1 2,2 2,3 1,2 1,3 1,5 0,1 0,3 -1,4 0,2 -1,3 -2,4 -1,1 -2,2 -4,2 -1,1 -3,1 -5,1 -1,0 -1,0 -2,0 -1,0 -2,0 -2,-1 -1,0 -2,0 -2,0 -1,0 -2,-1 -2,-1 l 0,-4 c 1,0 1,1 2,1 0,0 1,1 2,1 1,0 1,0 2,0 1,0 2,0 2,0 2,0 3,0 4,0 1,0 1,-1 2,-1 1,-1 1,-2 1,-3 1,-1 1,-2 1,-3 0,-2 -1,-4 -2,-5 -1,-1 -3,-2 -6,-2 0,0 -1,0 -1,0 -1,0 -1,1 -2,1 0,0 -1,0 -1,0 -1,0 -1,0 -1,0 l -2,-1 1,-16 16,0 0,4 -12,0 -1,9 c 0,0 1,0 2,0 0,0 1,0 2,0 z"
       id="path26"
       inkscape:connector-curvature="0"
       style="fill:#000000;fill-rule:nonzero" /><path
       d="m 1009,1305 c 0,3 0,6 -1,8 0,2 -1,4 -3,5 -1,2 -3,3 -5.00004,3 -2,1 -4,1 -7,1 l -8,0 0,-33 9,0 c 2,0 5,0 6,1 2.00004,1 4.00004,2 5.00004,3 2,1 3,3 3,5 1,2 1,5 1,7 z m -4,0 c 0,-2 0,-4 -1,-5 0,-2 -1,-3 -2,-4 -1,-1 -2.00004,-2 -4.00004,-3 -1,0 -3,-1 -4,-1 l -5,0 0,27 4,0 c 4,0 7,-1 9.00004,-4 2,-2 3,-5 3,-10 z m 32,10 -5,0 0,7 -4,0 0,-7 -15,0 0,-4 15,-22 4,0 0,22 5,0 0,4 z m -9,-4 0,-8 c 0,-1 0,-2 0,-3 0,-1 0,-2 0,-3 0,0 1,-1 1,-2 0,-1 0,-2 0,-2 l -1,0 c 0,0 0,1 0,1 0,0 0,1 0,1 -1,0 -1,1 -1,1 0,1 0,1 -1,1 l -9,14 11,0 z"
       id="path28"
       inkscape:connector-curvature="0"
       style="fill:#000000;fill-rule:nonzero" /><path
       d="m 1011,1405 c 0,3 0,6 -1,8 -1,2 -2,4 -3,5 -1,2 -3,3 -5,3 -2.00004,1 -4.00004,1 -7.00004,1 l -8,0 0,-33 9,0 c 2,0 4,0 6.00004,1 2,1 4,2 5,3 1,1 2,3 3,5 1,2 1,5 1,7 z m -4,0 c 0,-2 0,-4 -1,-5 0,-2 -1,-3 -2,-4 -1,-1 -2,-2 -4.00004,-3 -1,0 -3,-1 -5,-1 l -4,0 0,27 4,0 c 4,0 7.00004,-1 9.00004,-4 2,-2 3,-5 3,-10 z m 29,-8 c 0,1 0,2 0,3 -1,1 -1,1 -2,2 0,1 -1,1 -2,2 -1,0 -2,1 -3,1 l 0,0 c 3,0 5,1 6,2 2,2 2,4 2,6 0,1 0,3 0,4 -1,1 -2,2 -3,3 -1,1 -2,2 -4,2 -1,1 -3,1 -5,1 -2,0 -3,0 -5,0 -1,-1 -3,-1 -4,-2 l 0,-4 c 1,1 3,1 4,2 2,0 3,0 5,0 1,0 2,0 4,0 1,0 1,-1 2,-1 1,-1 1,-2 2,-2 0,-1 0,-2 0,-3 0,-1 0,-2 -1,-3 0,-1 -1,-1 -1,-2 -1,0 -2,-1 -3,-1 -1,0 -2,0 -4,0 l -3,0 0,-4 3,0 c 1,0 3,0 4,0 1,0 1,-1 2,-1 1,-1 1,-2 1,-2 1,-1 1,-2 1,-3 0,-1 0,-2 0,-2 -1,-1 -1,-1 -2,-2 0,0 -1,0 -1,-1 -1,0 -2,0 -3,0 -1,0 -3,0 -4,1 -1,0 -3,1 -4,2 l -2,-3 c 1,-1 1,-1 2,-2 1,0 2,0 2,-1 1,0 2,0 3,0 1,-1 2,-1 3,-1 2,0 3,1 5,1 1,0 2,1 3,2 1,0 1,1 2,2 0,1 0,3 0,4 z"
       id="path30"
       inkscape:connector-curvature="0"
       style="fill:#000000;fill-rule:nonzero" /><path
       d="m 1011,1505 c 0,3 0,6 -1,8 -1,2 -2,4 -3,5 -1,2 -3,3 -5,3 -2.00004,1 -5.00004,1 -7.00004,1 l -8,0 0,-33 9,0 c 2,0 4,0 6.00004,1 2,1 4,2 5,3 1,1 2,3 3,5 1,2 1,5 1,7 z m -4,0 c 0,-2 -1,-4 -1,-5 -1,-2 -1,-3 -2,-4 -1,-1 -2,-2 -4.00004,-3 -1,0 -3,-1 -5,-1 l -4,0 0,27 4,0 c 4,0 7.00004,-1 9.00004,-4 2,-2 3,-5 3,-10 z m 30,17 -21,0 0,-3 8,-9 c 2,-1 3,-2 3,-3 1,-1 2,-2 3,-3 0,-1 1,-2 1,-3 1,-1 1,-2 1,-3 0,-1 0,-2 -1,-3 0,-1 0,-1 -1,-2 0,0 -1,0 -2,-1 0,0 -1,0 -2,0 -1,0 -2,0 -4,1 -1,0 -2,1 -3,2 l -2,-3 c 0,0 1,-1 2,-1 0,-1 1,-1 2,-1 1,-1 2,-1 2,-1 1,-1 2,-1 3,-1 2,0 3,1 4,1 2,0 3,1 3,2 1,1 2,1 2,3 1,1 1,2 1,3 0,2 0,3 -1,4 0,1 -1,2 -1,4 -1,1 -2,2 -3,3 -1,1 -2,2 -3,4 l -7,6 0,1 16,0 0,3 z"
       id="path32"
       inkscape:connector-curvature="0"
       style="fill:#000000;fill-rule:nonzero" /><path
       d="m 672.99996,1848 11,0 0,17 c 0,0 -1,0 -2,0 -1,1 -2,1 -3,1 -1,0 -2,0 -3,0 -1,0 -2,0 -3,0 -2,0 -4,0 -6,-1 -2,-1 -4,-2 -5,-3 -1,-2 -2,-3 -3,-6 -1,-2 -1,-4 -1,-7 0,-2 1,-5 1,-7 1,-2 2,-4 3,-5 2,-2 4,-3 6,-4 2,-1 4,-1 7,-1 1,0 3,0 4,0 2,1 3,1 5,2 l -2,4 c 0,-1 -1,-1 -2,-1 0,0 -1,-1 -2,-1 0,0 -1,0 -2,0 0,0 -1,0 -2,0 -2,0 -3,0 -5,1 -1,0 -2,1 -3,2 -1,1 -2,3 -3,5 0,1 0,3 0,5 0,2 0,4 0,6 1,1 1,3 2,4 1,1 2,2 4,3 1,0 3,1 5,1 1,0 1,0 2,0 1,0 1,0 2,-1 0,0 0,0 1,0 0,0 1,0 1,0 l 0,-10 -7,0 0,-4 z m 44,18 -5,0 -16,-28 0,0 c 0,1 0,3 0,4 0,1 0,2 1,3 0,1 0,2 0,3 l 0,18 -5,0 0,-34 6,0 15,28 1,0 c -1,-1 -1,-2 -1,-3 0,-1 0,-1 0,-2 0,0 0,-1 0,-1 0,-1 0,-1 0,-2 0,0 0,-1 0,-1 l 0,-19 4,0 0,34 z m 34,-17 c 0,3 0,5 -1,7 -1,2 -2,4 -3,6 -1,1 -3,2 -5,3 -2,1 -4,1 -7,1 l -8,0 0,-34 9,0 c 2,0 4,1 6,1 2,1 4,2 5,4 1,1 3,3 3,5 1,2 1,4 1,7 z m -4,0 c 0,-2 0,-4 -1,-6 0,-1 -1,-3 -2,-4 -1,-1 -2,-2 -4,-2 -1,-1 -3,-1 -5,-1 l -4,0 0,26 4,0 c 4,0 7,-1 9,-3 2,-2 3,-6 3,-10 z"
       id="path34"
       inkscape:connector-curvature="0"
       style="fill:#000000;fill-rule:nonzero" /><path
       d="m 541.40279,845.02123 c 0,2 -1,5 -1,7 -1,2 -2,4 -4,6 -2,2 -4,3 -7,4 -3,1 -6,2 -10,2 l -6,0 0,23 -8,0 0,-59 15,0 c 4,0 7,0 9,1 3,0 5,2 7,3 2,2 3,3 4,6 0,2 1,4 1,7 z m -28,12 5,0 c 2,0 5,0 6,0 2,-1 4,-1 5,-2 1,-1 2,-3 3,-4 1,-2 1,-3 1,-6 0,-4 -1,-6 -3,-8 -3,-2 -6,-3 -11,-3 l -6,0 0,23 z m 67,30 0,-29 c 0,-3 -1,-6 -2,-8 -1,-1 -4,-2 -7,-2 -2,0 -4,0 -5,1 -2,0 -3,1 -4,3 -1,1 -1,3 -2,5 0,2 0,4 0,7 l 0,23 -8,0 0,-63 8,0 0,19 -1,5 1,0 c 0,-1 1,-2 2,-3 1,-1 2,-1 3,-2 1,0 2,-1 4,-1 1,0 2,0 4,0 5,0 8,1 11,3 2,3 4,7 4,13 l 0,29 -8,0 z m 58,-22 c 0,3 -1,7 -2,10 -1,2 -2,5 -4,7 -1,2 -3,3 -6,4 -2,1 -5,2 -8,2 -3,0 -5,-1 -8,-2 -2,-1 -4,-2 -6,-4 -1,-2 -3,-5 -4,-7 -1,-3 -1,-7 -1,-10 0,-4 0,-7 1,-10 1,-3 2,-5 4,-7 2,-2 4,-4 6,-5 3,-1 5,-1 8,-1 3,0 6,0 8,1 2,1 4,3 6,5 2,2 3,4 4,7 1,3 2,6 2,10 z m -32,0 c 0,5 1,10 3,12 2,3 5,5 9,5 4,0 7,-2 9,-5 2,-2 3,-7 3,-12 0,-6 -1,-10 -3,-13 -2,-3 -5,-4 -9,-4 -4,0 -7,1 -9,4 -2,3 -3,7 -3,13 z m 57,17 c 0,0 1,0 2,0 0,0 1,0 1,-1 1,0 1,0 2,0 0,0 1,0 1,0 l 0,6 c 0,0 -1,0 -1,0 -1,0 -2,0 -2,0 -1,1 -2,1 -2,1 -1,0 -2,0 -2,0 -2,0 -4,0 -5,-1 -1,0 -3,-1 -4,-2 -1,-1 -2,-3 -2,-4 -1,-2 -1,-4 -1,-7 l 0,-26 -6,0 0,-3 6,-4 3,-9 4,0 0,10 12,0 0,6 -12,0 0,26 c 0,2 1,4 2,6 0,1 2,2 4,2 z m 51,-17 c 0,3 0,7 -1,10 -1,2 -3,5 -4,7 -2,2 -4,3 -6,4 -3,1 -6,2 -9,2 -2,0 -5,-1 -7,-2 -3,-1 -5,-2 -6,-4 -2,-2 -4,-5 -4,-7 -1,-3 -2,-7 -2,-10 0,-4 1,-7 1,-10 1,-3 3,-5 4,-7 2,-2 4,-4 7,-5 2,-1 5,-1 8,-1 2,0 5,0 7,1 3,1 5,3 7,5 1,2 3,4 4,7 1,3 1,6 1,10 z m -31,0 c 0,5 1,10 3,12 1,3 4,5 9,5 4,0 7,-2 9,-5 1,-2 2,-7 2,-12 0,-6 -1,-10 -2,-13 -2,-3 -5,-4 -9,-4 -5,0 -8,1 -10,4 -1,3 -2,7 -2,13 z m 71,22 0,-29 c 0,-3 -1,-6 -3,-8 -1,-1 -3,-2 -6,-2 -2,0 -4,0 -6,1 -1,0 -2,1 -3,3 -1,1 -2,3 -2,5 -1,2 -1,4 -1,7 l 0,23 -7,0 0,-45 6,0 1,6 0,0 c 1,-1 2,-2 3,-3 1,-1 2,-1 3,-2 1,0 2,-1 3,-1 1,0 3,0 4,0 5,0 9,1 11,3 3,3 4,7 4,13 l 0,29 -7,0 z"
       id="path36"
       inkscape:connector-curvature="0"
       style="fill:#000000;fill-rule:nonzero" /><path
       d="m 771.99996,141 5,0 -11,34 -5,0 -11,-34 4,0 7,22 c 1,1 1,3 1,4 1,1 1,3 1,4 1,-1 1,-3 1,-4 1,-1 1,-3 2,-4 l 6,-22 z m 10,0 9,0 c 2,0 4,0 6,0 1,1 3,1 4,2 1,0 1,1 2,2 0,2 1,3 1,5 0,1 0,2 -1,2 0,1 -1,2 -1,3 -1,0 -1,1 -2,1 -1,1 -2,1 -3,1 l 0,0 c 1,1 2,1 3,1 1,1 2,1 2,2 1,0 2,1 2,2 0,1 1,2 1,3 0,2 -1,3 -1,5 -1,1 -1,2 -2,3 -1,1 -3,1 -4,2 -1,0 -3,0 -5,0 l -11,0 0,-34 z m 4,15 6,0 c 1,0 3,-1 3,-1 1,0 2,0 3,-1 0,0 1,-1 1,-2 0,0 0,-1 0,-2 0,-2 0,-3 -2,-4 -1,-1 -3,-1 -5,-1 l -6,0 0,11 z m 0,3 0,13 7,0 c 1,0 2,0 3,-1 1,0 2,-1 2,-1 1,-1 1,-1 2,-2 0,-1 0,-2 0,-3 0,-1 0,-1 0,-2 -1,-1 -1,-2 -2,-2 0,-1 -1,-1 -2,-1 -1,-1 -2,-1 -4,-1 l -6,0 z m 46,16 -3,-10 -13,0 -4,10 -5,0 13,-34 4,0 13,34 -5,0 z m -5,-14 -3,-10 c 0,-1 -1,-1 -1,-1 0,-1 0,-1 0,-2 0,0 0,-1 -1,-1 0,-1 0,-1 0,-2 0,1 0,1 0,2 0,0 -1,1 -1,1 0,1 0,1 0,2 0,0 0,0 0,1 l -4,10 10,0 z m 22,14 -5,0 0,-30 -10,0 0,-4 25,0 0,4 -10,0 0,30 z"
       id="path38"
       inkscape:connector-curvature="0"
       style="fill:#000000;fill-rule:nonzero" /><path
       d="m 184.99996,587 5,0 5,21 c 0,1 1,1 1,2 0,1 0,2 0,3 1,1 1,2 1,2 0,1 0,2 0,2 0,0 0,-1 1,-2 0,0 0,-1 0,-2 0,-1 0,-1 0,-2 0,-1 1,-2 1,-3 l 5,-21 4,0 -8,35 -5,0 -6,-22 c 0,-1 0,-2 -1,-3 0,-1 0,-1 0,-2 0,-1 -1,-2 -1,-3 0,1 0,2 0,3 0,1 -1,1 -1,2 0,1 0,2 0,3 l -6,22 -5,0 -9,-35 5,0 5,21 c 0,1 1,2 1,3 0,1 0,1 0,2 0,1 0,2 1,2 0,1 0,2 0,2 0,0 0,-1 0,-2 0,0 0,-1 1,-2 0,-1 0,-2 0,-3 0,-1 0,-1 1,-2 l 5,-21 z m 52,35 -5,0 -11,-16 -3,2 0,14 -5,0 0,-35 5,0 0,18 3,-4 10,-14 5,0 -12,16 13,19 z m 25,-24 c 0,1 0,2 0,4 -1,1 -1,2 -2,3 -1,1 -3,2 -4,3 -2,0 -4,1 -6,1 l -4,0 0,13 -4,0 0,-35 8,0 c 2,0 4,1 6,1 1,1 2,1 3,2 1,1 2,2 3,3 0,1 0,3 0,5 z m -16,7 3,0 c 2,0 3,0 4,-1 1,0 2,0 3,-1 0,0 1,-1 1,-2 1,-1 1,-2 1,-3 0,-2 -1,-4 -2,-5 -1,-1 -3,-2 -6,-2 l -4,0 0,14 z"
       id="path40"
       inkscape:connector-curvature="0"
       style="fill:#000000;fill-rule:nonzero" /><path
       d="m 195.99996,822 -4,-11 -13,0 -4,11 -5,0 13,-35 4,0 13,35 -4,0 z m -6,-15 -3,-10 c 0,0 0,0 0,-1 -1,0 -1,0 -1,-1 0,0 0,-1 0,-1 0,-1 -1,-1 -1,-2 0,1 0,1 0,2 0,0 0,1 -1,1 0,1 0,1 0,1 0,1 0,1 0,1 l -4,10 10,0 z m 23,-6 c 2,0 3,0 4,1 2,0 3,1 4,1 1,1 2,2 2,4 1,1 1,2 1,4 0,2 0,3 -1,5 0,1 -1,3 -2,4 -1,1 -2,1 -4,2 -2,0 -3,1 -5,1 -1,0 -2,0 -3,0 -1,-1 -1,-1 -2,-1 -1,0 -1,0 -2,0 -1,-1 -1,-1 -2,-1 l 0,-4 c 1,0 1,0 2,1 1,0 1,0 2,0 1,1 2,1 3,1 0,0 1,0 2,0 1,0 2,0 3,0 1,-1 2,-1 3,-2 0,0 1,-1 1,-2 1,-1 1,-2 1,-3 0,-3 -1,-4 -2,-6 -2,-1 -4,-1 -6,-1 -1,0 -1,0 -2,0 0,0 -1,0 -1,0 -1,0 -1,0 -2,0 0,0 -1,0 -1,0 l -2,-1 1,-17 17,0 0,4 -13,0 -1,10 c 1,0 1,0 2,0 1,0 2,0 3,0 z"
       id="path42"
       inkscape:connector-curvature="0"
       style="fill:#000000;fill-rule:nonzero" /><path
       d="m 195.99996,704 c 0,3 0,5 -1,7 -1,2 -2,4 -3,6 -2,1 -4,2 -6,3 -2,1 -4,1 -7,1 l -9,0 0,-34 10,0 c 3,0 5,0 7,1 2,0 3,1 5,3 1,1 2,3 3,5 1,2 1,5 1,8 z m -5,0 c 0,-3 0,-5 0,-6 -1,-2 -2,-3 -3,-4 -1,-2 -2,-2 -3,-3 -2,0 -3,-1 -5,-1 l -5,0 0,28 4,0 c 4,0 7,-2 9,-4 2,-2 3,-6 3,-10 z m 33,17 -4,-11 -13,0 -4,11 -4,0 12,-35 4,0 13,35 -4,0 z m -6,-14 -3,-10 c 0,-1 0,-1 0,-2 -1,0 -1,0 -1,-1 0,0 0,-1 0,-1 0,-1 -1,-1 -1,-2 0,1 0,1 0,2 0,0 0,1 0,1 -1,1 -1,1 -1,2 0,0 0,0 0,1 l -4,10 10,0 z m 28,-17 c -1,0 -3,0 -4,1 -2,1 -3,2 -4,3 -1,1 -1,2 -2,4 0,2 -1,4 -1,6 0,2 1,4 1,6 0,2 1,3 2,4 1,1 2,2 4,3 1,1 3,1 4,1 2,0 3,0 4,-1 2,0 3,0 4,0 l 0,3 c 0,1 -1,1 -2,1 0,0 -1,0 -2,0 0,1 -1,1 -2,1 0,0 -1,0 -2,0 -3,0 -5,-1 -7,-2 -2,0 -3,-2 -5,-3 -1,-2 -2,-4 -2,-6 -1,-2 -1,-4 -1,-7 0,-3 0,-5 1,-7 0,-3 1,-4 3,-6 1,-2 3,-3 5,-4 2,0 4,-1 6,-1 2,0 4,0 5,1 2,0 3,0 5,1 l -2,4 c -1,-1 -2,-1 -4,-1 -1,-1 -2,-1 -4,-1 z"
       id="path44"
       inkscape:connector-curvature="0"
       style="fill:#000000;fill-rule:nonzero" /><path
       d="m 195.99996,922 -4,-11 -13,0 -4,11 -5,0 13,-35 4,0 13,35 -4,0 z m -6,-15 -3,-10 c 0,0 0,0 0,-1 -1,0 -1,0 -1,-1 0,0 0,-1 0,-1 0,-1 -1,-1 -1,-2 0,1 0,1 0,2 0,0 0,1 -1,1 0,1 0,1 0,1 0,1 0,1 0,1 l -4,10 10,0 z m 36,7 -5,0 0,8 -4,0 0,-8 -16,0 0,-3 15,-24 5,0 0,23 5,0 0,4 z m -9,-4 0,-8 c 0,-1 0,-2 0,-3 0,-1 0,-2 0,-3 0,-1 0,-1 0,-2 0,-1 0,-2 0,-2 l 0,0 c 0,0 -1,0 -1,1 0,0 0,1 0,1 0,0 -1,1 -1,1 0,0 0,1 0,1 l -10,14 12,0 z"
       id="path46"
       inkscape:connector-curvature="0"
       style="fill:#000000;fill-rule:nonzero" /><path
       d="m 195.99996,1022 -4,-11 -13,0 -4,11 -5,0 13,-35 4,0 13,35 -4,0 z m -6,-15 -3,-10 c 0,0 0,0 0,-1 -1,0 -1,0 -1,-1 0,0 0,-1 0,-1 0,-1 -1,-1 -1,-2 0,1 0,1 0,2 0,0 0,1 -1,1 0,1 0,1 0,1 0,1 0,1 0,1 l -4,10 10,0 z m 33,-11 c 0,1 0,2 -1,3 0,1 -1,2 -1,2 -1,1 -2,2 -3,2 0,0 -2,1 -3,1 l 0,0 c 3,0 5,1 7,3 1,1 2,3 2,5 0,2 0,3 -1,4 0,2 -1,3 -2,4 -1,1 -3,1 -4,2 -2,0 -4,1 -6,1 -2,0 -3,0 -5,-1 -1,0 -3,-1 -4,-1 l 0,-4 c 1,0 3,1 4,1 2,1 4,1 5,1 2,0 3,0 4,0 1,-1 2,-1 3,-2 0,0 1,-1 1,-2 0,-1 1,-2 1,-3 0,-1 -1,-2 -1,-3 -1,0 -1,-1 -2,-1 -1,-1 -2,-1 -3,-2 -1,0 -2,0 -4,0 l -3,0 0,-4 3,0 c 2,0 3,0 4,0 1,0 2,-1 2,-1 1,-1 2,-2 2,-2 0,-1 0,-2 0,-3 0,-1 0,-2 0,-2 0,-1 -1,-2 -1,-2 -1,0 -1,-1 -2,-1 -1,0 -2,0 -2,0 -2,0 -4,0 -5,0 -1,1 -2,2 -4,3 l -2,-3 c 1,-1 1,-1 2,-2 1,0 2,-1 3,-1 0,0 1,-1 2,-1 1,0 2,0 3,0 2,0 4,0 5,1 1,0 2,1 3,1 1,1 2,2 2,3 1,1 1,2 1,4 z"
       id="path48"
       inkscape:connector-curvature="0"
       style="fill:#000000;fill-rule:nonzero" /><path
       d="m 195.99996,1122 -4,-11 -13,0 -4,11 -5,0 13,-35 4,0 13,35 -4,0 z m -6,-15 -3,-10 c 0,0 0,0 0,-1 -1,0 -1,0 -1,-1 0,0 0,-1 0,-1 0,-1 -1,-1 -1,-2 0,1 0,1 0,2 0,0 0,1 -1,1 0,1 0,1 0,1 0,1 0,1 0,1 l -4,10 10,0 z m 34,15 -22,0 0,-4 9,-9 c 1,-1 2,-2 3,-3 1,-1 2,-2 2,-3 1,-1 1,-2 2,-3 0,-1 0,-2 0,-4 0,-1 0,-1 0,-2 0,-1 -1,-1 -1,-2 -1,0 -1,-1 -2,-1 -1,0 -2,0 -2,0 -2,0 -3,0 -4,1 -2,0 -3,1 -4,2 l -2,-3 c 0,-1 1,-1 2,-2 0,0 1,0 2,-1 1,0 2,0 3,-1 1,0 2,0 3,0 1,0 3,0 4,1 1,0 2,1 3,1 1,1 1,2 2,3 0,2 1,3 1,4 0,2 -1,3 -1,4 0,1 -1,3 -2,4 0,1 -1,2 -2,3 -1,1 -3,3 -4,4 l -6,7 0,0 16,0 0,4 z"
       id="path50"
       inkscape:connector-curvature="0"
       style="fill:#000000;fill-rule:nonzero" /><path
       d="m 195.99996,1222 -4,-11 -13,0 -4,11 -5,0 13,-35 4,0 13,35 -4,0 z m -6,-15 -3,-10 c 0,0 0,0 0,-1 -1,0 -1,0 -1,-1 0,0 0,-1 0,-1 0,-1 -1,-1 -1,-2 0,1 0,1 0,2 0,0 0,1 -1,1 0,1 0,1 0,1 0,1 0,1 0,1 l -4,10 10,0 z m 27,15 -4,0 0,-22 c 0,0 0,-1 0,-2 0,0 0,-1 0,-2 0,-1 0,-2 0,-2 0,-1 0,-2 0,-2 0,0 -1,0 -1,1 0,0 0,0 0,0 -1,0 -1,1 -1,1 0,0 -1,0 -1,1 l -3,2 -3,-2 9,-8 4,0 0,35 z"
       id="path52"
       inkscape:connector-curvature="0"
       style="fill:#000000;fill-rule:nonzero" /><path
       d="m 195.99996,1322 -4,-11 -13,0 -4,11 -5,0 13,-35 4,0 13,35 -4,0 z m -6,-15 -3,-10 c 0,0 0,0 0,-1 -1,0 -1,0 -1,-1 0,0 0,-1 0,-1 0,-1 -1,-1 -1,-2 0,1 0,1 0,2 0,0 0,1 -1,1 0,1 0,1 0,1 0,1 0,1 0,1 l -4,10 10,0 z m 35,-2 c 0,3 -1,5 -1,7 0,3 -1,4 -2,6 -1,1 -2,3 -3,3 -2,1 -4,2 -6,2 -1,0 -3,-1 -4,-2 -2,0 -3,-2 -4,-3 -1,-2 -1,-3 -2,-6 0,-2 -1,-4 -1,-7 0,-3 1,-6 1,-8 0,-2 1,-4 2,-5 1,-2 2,-3 3,-4 2,-1 3,-1 5,-1 2,0 4,0 5,1 2,1 3,2 4,4 1,1 1,3 2,5 0,2 1,5 1,8 z m -18,0 c 0,2 0,4 0,6 0,2 1,3 1,4 1,2 1,3 2,3 1,1 2,1 3,1 2,0 3,0 4,-1 0,0 1,-1 2,-3 0,-1 1,-2 1,-4 0,-2 0,-4 0,-6 0,-3 0,-5 0,-6 0,-2 -1,-4 -1,-5 -1,-1 -2,-2 -2,-3 -1,0 -2,0 -4,0 -1,0 -2,0 -3,0 -1,1 -1,2 -2,3 0,1 -1,3 -1,5 0,1 0,3 0,6 z"
       id="path54"
       inkscape:connector-curvature="0"
       style="fill:#000000;fill-rule:nonzero" /><path
       d="m 1009,1705 c 0,3 0,5 -1,7 -1,3 -2,4 -3,6 -2,1 -3,3 -5.00004,3 -3,1 -5,1 -8,1 l -8,0 0,-34 9,0 c 3,0 5,0 7,1 2.00004,0 4.00004,2 5.00004,3 1,1 2,3 3,5 1,2 1,5 1,8 z m -4,0 c 0,-2 -1,-4 -1,-6 -1,-2 -1,-3 -2,-4 -1,-1 -3.00004,-2 -4.00004,-3 -2,0 -3,-1 -5,-1 l -5,0 0,28 4,0 c 4,0 7,-2 9.00004,-4 3,-2 4,-6 4,-10 z m 32,0 c 0,3 0,5 -1,8 0,2 -1,4 -2,5 -1,2 -2,3 -3,4 -2,0 -3,1 -5,1 -2,0 -4,-1 -5,-1 -2,-1 -3,-2 -4,-4 -1,-1 -1,-3 -2,-5 0,-3 0,-5 0,-8 0,-3 0,-5 0,-8 1,-2 1,-4 2,-5 1,-2 2,-3 4,-4 1,0 3,-1 5,-1 1,0 3,1 5,1 1,1 2,2 3,4 1,1 2,3 2,5 1,3 1,5 1,8 z m -18,0 c 0,2 0,4 0,6 1,2 1,3 1,5 1,1 2,2 2,2 1,1 2,1 4,1 1,0 2,0 3,-1 1,0 1,-1 2,-2 0,-1 1,-3 1,-5 0,-2 0,-4 0,-6 0,-2 0,-4 0,-6 0,-2 -1,-3 -1,-5 -1,-1 -1,-2 -2,-2 -1,-1 -2,-1 -3,-1 -2,0 -3,0 -4,1 0,0 -1,1 -2,2 0,2 0,3 -1,5 0,2 0,4 0,6 z"
       id="path56"
       inkscape:connector-curvature="0"
       style="fill:#000000;fill-rule:nonzero" /><path
       d="m 1012,1605 c 0,3 0,5 -1,8 -1,2 -2,4 -3,5 -1,2 -3,3 -5,3 -2,1 -5.00004,2 -7.00004,2 l -9,0 0,-35 9,0 c 3,0 5.00004,0 7.00004,1 2,1 4,2 5,3 1,2 3,3 3,5 1,3 1,5 1,8 z m -4,0 c 0,-2 -1,-4 -1,-6 -1,-2 -1,-3 -2,-4 -1,-1 -3,-2 -4,-3 -1.00004,0 -3.00004,0 -5.00004,0 l -5,0 0,27 4,0 c 4,0 7.00004,-1 10.00004,-4 2,-2 3,-5 3,-10 z m 24,18 -4,0 0,-22 c 0,-1 0,-2 0,-2 0,-1 0,-2 0,-3 0,0 0,-1 0,-2 0,-1 0,-1 0,-2 0,1 0,1 0,1 -1,0 -1,0 -1,1 0,0 -1,0 -1,0 0,0 0,1 -1,1 l -3,3 -2,-3 9,-7 3,0 0,35 z"
       id="path58"
       inkscape:connector-curvature="0"
       style="fill:#000000;fill-rule:nonzero" /><g
       transform="translate(5.9999576,5)"
       id="g60"><path
         d="m 394,100 12,0 0,1 0,0 -1,0 0,1 0,0 0,0 0,0 0,1 0,0 0,0 0,0 0,1 -1,0 0,0 0,0 0,0 0,1 -1,0 0,0 0,0 0,0 0,0 -1,0 0,1 0,0 0,0 -1,0 0,0 0,0 -1,0 0,0 0,0 0,0 -1,0 0,0 0,0 -1,0 0,0 0,0 0,0 -1,-1 0,0 0,0 0,0 0,0 -1,0 0,0 0,-1 0,0 0,0 -1,0 0,0 0,-1 0,0 0,0 0,0 0,-1 0,0 -1,0 0,0 0,-1 0,0 0,0 0,-1 z m 12,-100 0,100 -12,0 0,-100 12,0 z m 0,0 -12,0 0,0 0,0 0,0 0,-1 0,0 1,0 0,-1 0,0 0,0 0,0 0,-1 0,0 0,0 1,0 0,0 0,-1 0,0 0,0 1,0 0,0 0,0 0,-1 0,0 1,0 0,0 0,0 0,0 1,0 0,0 0,0 1,0 0,0 0,0 0,0 1,0 0,0 0,0 1,0 0,0 0,0 0,0 1,0 0,1 0,0 0,0 0,0 1,0 0,0 0,1 0,0 0,0 1,0 0,0 0,1 0,0 0,0 0,0 0,1 0,0 0,0 0,1 1,0 0,0 0,0 z"
         id="path62"
         inkscape:connector-curvature="0"
         style="fill:#000000;fill-rule:nonzero" /></g><g
       transform="translate(5.9999576,-95)"
       id="g64"><path
         d="m 0,495 0,11 0,0 -1,0 0,0 0,0 0,0 -1,0 0,0 0,0 0,-1 -1,0 0,0 0,0 0,0 -1,0 0,0 0,-1 0,0 0,0 -1,0 0,0 0,-1 0,0 0,0 0,0 0,-1 0,0 0,0 -1,0 0,-1 0,0 0,0 0,-1 0,0 0,0 0,0 0,-1 1,0 0,0 0,-1 0,0 0,0 0,0 0,-1 0,0 0,0 1,0 0,0 0,-1 0,0 0,0 1,0 0,0 0,0 0,-1 1,0 0,0 0,0 0,0 1,0 0,0 0,0 0,0 1,0 0,0 z m 100,11 -100,0 0,-11 100,0 0,11 z m 0,0 0,-11 0,0 1,0 0,0 0,0 0,0 1,0 0,0 0,0 0,0 1,0 0,1 0,0 0,0 1,0 0,0 0,0 0,1 0,0 1,0 0,0 0,0 0,1 0,0 0,0 0,0 0,1 0,0 1,0 0,1 0,0 0,0 0,0 0,1 0,0 0,0 0,1 -1,0 0,0 0,0 0,1 0,0 0,0 0,0 0,1 0,0 -1,0 0,0 0,0 0,1 0,0 -1,0 0,0 0,0 0,0 -1,0 0,1 0,0 0,0 -1,0 0,0 0,0 0,0 -1,0 0,0 z"
         id="path66"
         inkscape:connector-curvature="0"
         style="fill:#000000;fill-rule:nonzero" /></g><g
       transform="translate(5.9999576,-95)"
       id="g68"><path
         d="m 0,595 0,11 0,0 -1,0 0,0 0,0 0,0 -1,0 0,0 0,0 0,-1 -1,0 0,0 0,0 0,0 -1,0 0,0 0,-1 0,0 0,0 -1,0 0,0 0,-1 0,0 0,0 0,0 0,-1 0,0 0,0 -1,0 0,-1 0,0 0,0 0,-1 0,0 0,0 0,0 0,-1 1,0 0,0 0,-1 0,0 0,0 0,0 0,-1 0,0 0,0 1,0 0,0 0,-1 0,0 0,0 1,0 0,0 0,0 0,-1 1,0 0,0 0,0 0,0 1,0 0,0 0,0 0,0 1,0 0,0 z m 100,11 -100,0 0,-11 100,0 0,11 z m 0,0 0,-11 0,0 1,0 0,0 0,0 0,0 1,0 0,0 0,0 0,0 1,0 0,1 0,0 0,0 1,0 0,0 0,0 0,1 0,0 1,0 0,0 0,0 0,1 0,0 0,0 0,0 0,1 0,0 1,0 0,1 0,0 0,0 0,0 0,1 0,0 0,0 0,1 -1,0 0,0 0,0 0,1 0,0 0,0 0,0 0,1 0,0 -1,0 0,0 0,0 0,1 0,0 -1,0 0,0 0,0 0,0 -1,0 0,1 0,0 0,0 -1,0 0,0 0,0 0,0 -1,0 0,0 z"
         id="path70"
         inkscape:connector-curvature="0"
         style="fill:#000000;fill-rule:nonzero" /></g><g
       transform="translate(5.9999576,-95)"
       id="g72"><path
         d="m 0,695 0,11 0,0 -1,0 0,0 0,0 0,0 -1,0 0,0 0,0 0,-1 -1,0 0,0 0,0 0,0 -1,0 0,0 0,-1 0,0 0,0 -1,0 0,0 0,-1 0,0 0,0 0,0 0,-1 0,0 0,0 -1,0 0,-1 0,0 0,0 0,-1 0,0 0,0 0,0 0,-1 1,0 0,0 0,-1 0,0 0,0 0,0 0,-1 0,0 0,0 1,0 0,0 0,-1 0,0 0,0 1,0 0,0 0,0 0,-1 1,0 0,0 0,0 0,0 1,0 0,0 0,0 0,0 1,0 0,0 z m 100,11 -100,0 0,-11 100,0 0,11 z m 0,0 0,-11 0,0 1,0 0,0 0,0 0,0 1,0 0,0 0,0 0,0 1,0 0,1 0,0 0,0 1,0 0,0 0,0 0,1 0,0 1,0 0,0 0,0 0,1 0,0 0,0 0,0 0,1 0,0 1,0 0,1 0,0 0,0 0,0 0,1 0,0 0,0 0,1 -1,0 0,0 0,0 0,1 0,0 0,0 0,0 0,1 0,0 -1,0 0,0 0,0 0,1 0,0 -1,0 0,0 0,0 0,0 -1,0 0,1 0,0 0,0 -1,0 0,0 0,0 0,0 -1,0 0,0 z"
         id="path74"
         inkscape:connector-curvature="0"
         style="fill:#000000;fill-rule:nonzero" /></g><g
       transform="translate(5.9999576,-95)"
       id="g76"><path
         d="m 0,795 0,11 0,0 -1,0 0,0 0,0 0,0 -1,0 0,0 0,0 0,-1 -1,0 0,0 0,0 0,0 -1,0 0,0 0,-1 0,0 0,0 -1,0 0,0 0,-1 0,0 0,0 0,0 0,-1 0,0 0,0 -1,0 0,-1 0,0 0,0 0,-1 0,0 0,0 0,0 0,-1 1,0 0,0 0,-1 0,0 0,0 0,0 0,-1 0,0 0,0 1,0 0,0 0,-1 0,0 0,0 1,0 0,0 0,0 0,-1 1,0 0,0 0,0 0,0 1,0 0,0 0,0 0,0 1,0 0,0 z m 100,11 -100,0 0,-11 100,0 0,11 z m 0,0 0,-11 0,0 1,0 0,0 0,0 0,0 1,0 0,0 0,0 0,0 1,0 0,1 0,0 0,0 1,0 0,0 0,0 0,1 0,0 1,0 0,0 0,0 0,1 0,0 0,0 0,0 0,1 0,0 1,0 0,1 0,0 0,0 0,0 0,1 0,0 0,0 0,1 -1,0 0,0 0,0 0,1 0,0 0,0 0,0 0,1 0,0 -1,0 0,0 0,0 0,1 0,0 -1,0 0,0 0,0 0,0 -1,0 0,1 0,0 0,0 -1,0 0,0 0,0 0,0 -1,0 0,0 z"
         id="path78"
         inkscape:connector-curvature="0"
         style="fill:#000000;fill-rule:nonzero" /></g><g
       transform="translate(5.9999576,-95)"
       id="g80"><path
         d="m 0,895 0,11 0,0 -1,0 0,0 0,0 0,0 -1,0 0,0 0,0 0,-1 -1,0 0,0 0,0 0,0 -1,0 0,0 0,-1 0,0 0,0 -1,0 0,0 0,-1 0,0 0,0 0,0 0,-1 0,0 0,0 -1,0 0,-1 0,0 0,0 0,-1 0,0 0,0 0,0 0,-1 1,0 0,0 0,-1 0,0 0,0 0,0 0,-1 0,0 0,0 1,0 0,0 0,-1 0,0 0,0 1,0 0,0 0,0 0,-1 1,0 0,0 0,0 0,0 1,0 0,0 0,0 0,0 1,0 0,0 z m 100,11 -100,0 0,-11 100,0 0,11 z m 0,0 0,-11 0,0 1,0 0,0 0,0 0,0 1,0 0,0 0,0 0,0 1,0 0,1 0,0 0,0 1,0 0,0 0,0 0,1 0,0 1,0 0,0 0,0 0,1 0,0 0,0 0,0 0,1 0,0 1,0 0,1 0,0 0,0 0,0 0,1 0,0 0,0 0,1 -1,0 0,0 0,0 0,1 0,0 0,0 0,0 0,1 0,0 -1,0 0,0 0,0 0,1 0,0 -1,0 0,0 0,0 0,0 -1,0 0,1 0,0 0,0 -1,0 0,0 0,0 0,0 -1,0 0,0 z"
         id="path82"
         inkscape:connector-curvature="0"
         style="fill:#000000;fill-rule:nonzero" /></g><g
       transform="translate(5.9999576,-95)"
       id="g84"><path
         d="m 0,995 0,11 0,0 -1,0 0,0 0,0 0,0 -1,0 0,0 0,0 0,-1 -1,0 0,0 0,0 0,0 -1,0 0,0 0,-1 0,0 0,0 -1,0 0,0 0,-1 0,0 0,0 0,0 0,-1 0,0 0,0 -1,0 0,-1 0,0 0,0 0,-1 0,0 0,0 0,0 0,-1 1,0 0,0 0,-1 0,0 0,0 0,0 0,-1 0,0 0,0 1,0 0,0 0,-1 0,0 0,0 1,0 0,0 0,0 0,-1 1,0 0,0 0,0 0,0 1,0 0,0 0,0 0,0 1,0 0,0 z m 100,11 -100,0 0,-11 100,0 0,11 z m 0,0 0,-11 0,0 1,0 0,0 0,0 0,0 1,0 0,0 0,0 0,0 1,0 0,1 0,0 0,0 1,0 0,0 0,0 0,1 0,0 1,0 0,0 0,0 0,1 0,0 0,0 0,0 0,1 0,0 1,0 0,1 0,0 0,0 0,0 0,1 0,0 0,0 0,1 -1,0 0,0 0,0 0,1 0,0 0,0 0,0 0,1 0,0 -1,0 0,0 0,0 0,1 0,0 -1,0 0,0 0,0 0,0 -1,0 0,1 0,0 0,0 -1,0 0,0 0,0 0,0 -1,0 0,0 z"
         id="path86"
         inkscape:connector-curvature="0"
         style="fill:#000000;fill-rule:nonzero" /></g><g
       transform="translate(5.9999576,-95)"
       id="g88"><path
         d="m 0,1095 0,11 0,0 -1,0 0,0 0,0 0,0 -1,0 0,0 0,0 0,-1 -1,0 0,0 0,0 0,0 -1,0 0,0 0,-1 0,0 0,0 -1,0 0,0 0,-1 0,0 0,0 0,0 0,-1 0,0 0,0 -1,0 0,-1 0,0 0,0 0,-1 0,0 0,0 0,0 0,-1 1,0 0,0 0,-1 0,0 0,0 0,0 0,-1 0,0 0,0 1,0 0,0 0,-1 0,0 0,0 1,0 0,0 0,0 0,-1 1,0 0,0 0,0 0,0 1,0 0,0 0,0 0,0 1,0 0,0 z m 100,11 -100,0 0,-11 100,0 0,11 z m 0,0 0,-11 0,0 1,0 0,0 0,0 0,0 1,0 0,0 0,0 0,0 1,0 0,1 0,0 0,0 1,0 0,0 0,0 0,1 0,0 1,0 0,0 0,0 0,1 0,0 0,0 0,0 0,1 0,0 1,0 0,1 0,0 0,0 0,0 0,1 0,0 0,0 0,1 -1,0 0,0 0,0 0,1 0,0 0,0 0,0 0,1 0,0 -1,0 0,0 0,0 0,1 0,0 -1,0 0,0 0,0 0,0 -1,0 0,1 0,0 0,0 -1,0 0,0 0,0 0,0 -1,0 0,0 z"
         id="path90"
         inkscape:connector-curvature="0"
         style="fill:#000000;fill-rule:nonzero" /></g><g
       transform="translate(5.9999576,-95)"
       id="g92"><path
         d="m 0,1195 0,11 0,0 -1,0 0,0 0,0 0,0 -1,0 0,0 0,0 0,-1 -1,0 0,0 0,0 0,0 -1,0 0,0 0,-1 0,0 0,0 -1,0 0,0 0,-1 0,0 0,0 0,0 0,-1 0,0 0,0 -1,0 0,-1 0,0 0,0 0,-1 0,0 0,0 0,0 0,-1 1,0 0,0 0,-1 0,0 0,0 0,0 0,-1 0,0 0,0 1,0 0,0 0,-1 0,0 0,0 1,0 0,0 0,0 0,-1 1,0 0,0 0,0 0,0 1,0 0,0 0,0 0,0 1,0 0,0 z m 100,11 -100,0 0,-11 100,0 0,11 z m 0,0 0,-11 0,0 1,0 0,0 0,0 0,0 1,0 0,0 0,0 0,0 1,0 0,1 0,0 0,0 1,0 0,0 0,0 0,1 0,0 1,0 0,0 0,0 0,1 0,0 0,0 0,0 0,1 0,0 1,0 0,1 0,0 0,0 0,0 0,1 0,0 0,0 0,1 -1,0 0,0 0,0 0,1 0,0 0,0 0,0 0,1 0,0 -1,0 0,0 0,0 0,1 0,0 -1,0 0,0 0,0 0,0 -1,0 0,1 0,0 0,0 -1,0 0,0 0,0 0,0 -1,0 0,0 z"
         id="path94"
         inkscape:connector-curvature="0"
         style="fill:#000000;fill-rule:nonzero" /></g><g
       transform="translate(5.9999576,-95)"
       id="g96"><path
         d="m 0,1295 0,11 0,0 -1,0 0,0 0,0 0,0 -1,0 0,0 0,0 0,-1 -1,0 0,0 0,0 0,0 -1,0 0,0 0,-1 0,0 0,0 -1,0 0,0 0,-1 0,0 0,0 0,0 0,-1 0,0 0,0 -1,0 0,-1 0,0 0,0 0,-1 0,0 0,0 0,0 0,-1 1,0 0,0 0,-1 0,0 0,0 0,0 0,-1 0,0 0,0 1,0 0,0 0,-1 0,0 0,0 1,0 0,0 0,0 0,-1 1,0 0,0 0,0 0,0 1,0 0,0 0,0 0,0 1,0 0,0 z m 100,11 -100,0 0,-11 100,0 0,11 z m 0,0 0,-11 0,0 1,0 0,0 0,0 0,0 1,0 0,0 0,0 0,0 1,0 0,1 0,0 0,0 1,0 0,0 0,0 0,1 0,0 1,0 0,0 0,0 0,1 0,0 0,0 0,0 0,1 0,0 1,0 0,1 0,0 0,0 0,0 0,1 0,0 0,0 0,1 -1,0 0,0 0,0 0,1 0,0 0,0 0,0 0,1 0,0 -1,0 0,0 0,0 0,1 0,0 -1,0 0,0 0,0 0,0 -1,0 0,1 0,0 0,0 -1,0 0,0 0,0 0,0 -1,0 0,0 z"
         id="path98"
         inkscape:connector-curvature="0"
         style="fill:#000000;fill-rule:nonzero" /></g><g
       transform="translate(5.9999576,5)"
       id="g100"><path
         d="m 594,100 12,0 0,1 0,0 -1,0 0,1 0,0 0,0 0,0 0,1 0,0 0,0 0,0 0,1 -1,0 0,0 0,0 0,0 0,1 -1,0 0,0 0,0 0,0 0,0 -1,0 0,1 0,0 0,0 -1,0 0,0 0,0 -1,0 0,0 0,0 0,0 -1,0 0,0 0,0 -1,0 0,0 0,0 0,0 -1,-1 0,0 0,0 0,0 0,0 -1,0 0,0 0,-1 0,0 0,0 -1,0 0,0 0,-1 0,0 0,0 0,0 0,-1 0,0 -1,0 0,0 0,-1 0,0 0,0 0,-1 z m 12,-100 0,100 -12,0 0,-100 12,0 z m 0,0 -12,0 0,0 0,0 0,0 0,-1 0,0 1,0 0,-1 0,0 0,0 0,0 0,-1 0,0 0,0 1,0 0,0 0,-1 0,0 0,0 1,0 0,0 0,0 0,-1 0,0 1,0 0,0 0,0 0,0 1,0 0,0 0,0 1,0 0,0 0,0 0,0 1,0 0,0 0,0 1,0 0,0 0,0 0,0 1,0 0,1 0,0 0,0 0,0 1,0 0,0 0,1 0,0 0,0 1,0 0,0 0,1 0,0 0,0 0,0 0,1 0,0 0,0 0,1 1,0 0,0 0,0 z"
         id="path102"
         inkscape:connector-curvature="0"
         style="fill:#000000;fill-rule:nonzero" /></g><g
       transform="translate(5.9999576,-95)"
       id="g104"><path
         d="m 0,294 0,12 0,0 0,0 -1,0 0,0 0,-1 0,0 -1,0 0,0 0,0 0,0 -1,0 0,0 0,0 0,-1 -1,0 0,0 0,0 0,0 0,-1 0,0 -1,0 0,0 0,-1 0,0 0,0 0,0 0,-1 0,0 0,0 0,0 0,-1 0,0 0,0 0,-1 0,0 0,0 0,0 0,-1 0,0 0,0 0,0 0,-1 0,0 1,0 0,0 0,-1 0,0 0,0 0,0 1,0 0,-1 0,0 0,0 1,0 0,0 0,0 0,0 1,0 0,0 0,-1 0,0 1,0 0,0 0,0 z m 100,12 -100,0 0,-12 100,0 0,12 z m 0,0 0,-12 1,0 0,0 0,0 0,0 1,1 0,0 0,0 0,0 1,0 0,0 0,0 0,0 1,0 0,1 0,0 0,0 0,0 1,0 0,1 0,0 0,0 0,0 0,1 0,0 1,0 0,0 0,1 0,0 0,0 0,0 0,1 0,0 0,0 0,1 0,0 0,0 0,0 0,1 0,0 -1,0 0,0 0,1 0,0 0,0 0,0 0,1 -1,0 0,0 0,0 0,0 0,1 -1,0 0,0 0,0 0,0 -1,0 0,0 0,0 0,0 -1,1 0,0 0,0 0,0 -1,0 z"
         id="path106"
         inkscape:connector-curvature="0"
         style="fill:#000000;fill-rule:nonzero" /></g><g
       transform="translate(5.9999576,5)"
       id="g108"><path
         d="m 794,100 12,0 0,1 0,0 -1,0 0,1 0,0 0,0 0,0 0,1 0,0 0,0 0,0 0,1 -1,0 0,0 0,0 0,0 0,1 -1,0 0,0 0,0 0,0 0,0 -1,0 0,1 0,0 0,0 -1,0 0,0 0,0 -1,0 0,0 0,0 0,0 -1,0 0,0 0,0 -1,0 0,0 0,0 0,0 -1,-1 0,0 0,0 0,0 0,0 -1,0 0,0 0,-1 0,0 0,0 -1,0 0,0 0,-1 0,0 0,0 0,0 0,-1 -1,0 0,0 0,0 0,-1 0,0 0,0 0,-1 z m 12,-100 0,100 -12,0 0,-100 12,0 z m 0,0 -12,0 0,0 0,0 0,0 0,-1 0,0 0,0 1,-1 0,0 0,0 0,0 0,-1 0,0 0,0 1,0 0,0 0,-1 0,0 0,0 1,0 0,0 0,0 0,-1 0,0 1,0 0,0 0,0 0,0 1,0 0,0 0,0 1,0 0,0 0,0 0,0 1,0 0,0 0,0 1,0 0,0 0,0 0,0 1,0 0,1 0,0 0,0 0,0 1,0 0,0 0,1 0,0 0,0 1,0 0,0 0,1 0,0 0,0 0,0 0,1 0,0 0,0 0,1 1,0 0,0 0,0 z"
         id="path110"
         inkscape:connector-curvature="0"
         style="fill:#000000;fill-rule:nonzero" /></g><g
       transform="translate(5.9999576,305)"
       id="g112"><path
         d="m 695,1700 11,0 0,0 0,1 0,0 0,0 0,0 0,1 0,0 -1,0 0,0 0,1 0,0 0,0 0,0 0,1 -1,0 0,0 0,0 0,0 0,1 -1,0 0,0 0,0 0,0 -1,0 0,0 0,0 0,0 -1,1 0,0 0,0 0,0 -1,0 0,0 0,0 -1,0 0,0 0,-1 0,0 -1,0 0,0 0,0 0,0 -1,0 0,0 0,0 0,-1 -1,0 0,0 0,0 0,0 0,-1 0,0 -1,0 0,0 0,-1 0,0 0,0 0,0 0,-1 0,0 0,0 0,0 0,-1 0,0 z m 11,-100 0,100 -11,0 0,-100 11,0 z m 0,0 -11,0 0,0 0,-1 0,0 0,0 0,0 0,-1 0,0 0,0 0,0 0,-1 0,0 1,0 0,0 0,-1 0,0 0,0 0,0 1,0 0,-1 0,0 0,0 1,0 0,0 0,0 0,0 1,0 0,0 0,-1 0,0 1,0 0,0 0,0 1,0 0,0 0,0 0,0 1,1 0,0 0,0 0,0 1,0 0,0 0,0 0,0 1,0 0,1 0,0 0,0 0,0 1,0 0,1 0,0 0,0 0,0 0,1 0,0 1,0 0,0 0,1 0,0 0,0 0,0 0,1 0,0 z"
         id="path114"
         inkscape:connector-curvature="0"
         style="fill:#000000;fill-rule:nonzero" /></g><g
       transform="translate(5.9999576,305)"
       id="g116"><path
         d="m 1100,695 0,11 0,0 -1,0 0,0 0,0 0,0 -1,0 0,0 0,0 0,-1 -1,0 0,0 0,0 0,0 -1,0 0,0 0,-1 0,0 0,0 -1,0 0,0 0,-1 0,0 0,0 0,0 0,-1 0,0 0,0 -1,0 0,-1 0,0 0,0 0,-1 0,0 0,0 0,0 0,-1 1,0 0,0 0,-1 0,0 0,0 0,0 0,-1 0,0 0,0 1,0 0,0 0,-1 0,0 0,0 1,0 0,0 0,0 0,-1 1,0 0,0 0,0 0,0 1,0 0,0 0,0 0,0 1,0 0,0 z m 100,11 -100,0 0,-11 100,0 0,11 z m 0,0 0,-11 0,0 1,0 0,0 0,0 0,0 1,0 0,0 0,0 0,0 1,0 0,1 0,0 0,0 1,0 0,0 0,0 0,1 0,0 1,0 0,0 0,0 0,1 0,0 0,0 0,0 0,1 0,0 1,0 0,1 0,0 0,0 0,0 0,1 0,0 0,0 0,1 -1,0 0,0 0,0 0,1 0,0 0,0 0,0 0,1 0,0 -1,0 0,0 0,0 0,1 0,0 -1,0 0,0 0,0 0,0 -1,0 0,1 0,0 0,0 -1,0 0,0 0,0 0,0 -1,0 0,0 z"
         id="path118"
         inkscape:connector-curvature="0"
         style="fill:#000000;fill-rule:nonzero" /></g><g
       transform="translate(5.9999576,305)"
       id="g120"><path
         d="m 1100,795 0,11 0,0 -1,0 0,0 0,0 0,0 -1,0 0,0 0,0 0,-1 -1,0 0,0 0,0 0,0 -1,0 0,0 0,-1 0,0 0,0 -1,0 0,0 0,-1 0,0 0,0 0,0 0,-1 0,0 0,0 -1,0 0,-1 0,0 0,0 0,-1 0,0 0,0 0,0 0,-1 1,0 0,0 0,-1 0,0 0,0 0,0 0,-1 0,0 0,0 1,0 0,0 0,-1 0,0 0,0 1,0 0,0 0,0 0,-1 1,0 0,0 0,0 0,0 1,0 0,0 0,0 0,0 1,0 0,0 z m 100,11 -100,0 0,-11 100,0 0,11 z m 0,0 0,-11 0,0 1,0 0,0 0,0 0,0 1,0 0,0 0,0 0,0 1,0 0,1 0,0 0,0 1,0 0,0 0,0 0,1 0,0 1,0 0,0 0,0 0,1 0,0 0,0 0,0 0,1 0,0 1,0 0,1 0,0 0,0 0,0 0,1 0,0 0,0 0,1 -1,0 0,0 0,0 0,1 0,0 0,0 0,0 0,1 0,0 -1,0 0,0 0,0 0,1 0,0 -1,0 0,0 0,0 0,0 -1,0 0,1 0,0 0,0 -1,0 0,0 0,0 0,0 -1,0 0,0 z"
         id="path122"
         inkscape:connector-curvature="0"
         style="fill:#000000;fill-rule:nonzero" /></g><g
       transform="translate(5.9999576,305)"
       id="g124"><path
         d="m 1100,895 0,11 0,0 -1,0 0,0 0,0 0,0 -1,0 0,0 0,0 0,-1 -1,0 0,0 0,0 0,0 -1,0 0,0 0,-1 0,0 0,0 -1,0 0,0 0,-1 0,0 0,0 0,0 0,-1 0,0 0,0 -1,0 0,-1 0,0 0,0 0,-1 0,0 0,0 0,0 0,-1 1,0 0,0 0,-1 0,0 0,0 0,0 0,-1 0,0 0,0 1,0 0,0 0,-1 0,0 0,0 1,0 0,0 0,0 0,-1 1,0 0,0 0,0 0,0 1,0 0,0 0,0 0,0 1,0 0,0 z m 100,11 -100,0 0,-11 100,0 0,11 z m 0,0 0,-11 0,0 1,0 0,0 0,0 0,0 1,0 0,0 0,0 0,0 1,0 0,1 0,0 0,0 1,0 0,0 0,0 0,1 0,0 1,0 0,0 0,0 0,1 0,0 0,0 0,0 0,1 0,0 1,0 0,1 0,0 0,0 0,0 0,1 0,0 0,0 0,1 -1,0 0,0 0,0 0,1 0,0 0,0 0,0 0,1 0,0 -1,0 0,0 0,0 0,1 0,0 -1,0 0,0 0,0 0,0 -1,0 0,1 0,0 0,0 -1,0 0,0 0,0 0,0 -1,0 0,0 z"
         id="path126"
         inkscape:connector-curvature="0"
         style="fill:#000000;fill-rule:nonzero" /></g><g
       transform="translate(5.9999576,305)"
       id="g128"><path
         d="m 1100,995 0,11 0,0 -1,0 0,0 0,0 0,0 -1,0 0,0 0,0 0,-1 -1,0 0,0 0,0 0,0 -1,0 0,0 0,-1 0,0 0,0 -1,0 0,0 0,-1 0,0 0,0 0,0 0,-1 0,0 0,0 -1,0 0,-1 0,0 0,0 0,-1 0,0 0,0 0,0 0,-1 1,0 0,0 0,-1 0,0 0,0 0,0 0,-1 0,0 0,0 1,0 0,0 0,-1 0,0 0,0 1,0 0,0 0,0 0,-1 1,0 0,0 0,0 0,0 1,0 0,0 0,0 0,0 1,0 0,0 z m 100,11 -100,0 0,-11 100,0 0,11 z m 0,0 0,-11 0,0 1,0 0,0 0,0 0,0 1,0 0,0 0,0 0,0 1,0 0,1 0,0 0,0 1,0 0,0 0,0 0,1 0,0 1,0 0,0 0,0 0,1 0,0 0,0 0,0 0,1 0,0 1,0 0,1 0,0 0,0 0,0 0,1 0,0 0,0 0,1 -1,0 0,0 0,0 0,1 0,0 0,0 0,0 0,1 0,0 -1,0 0,0 0,0 0,1 0,0 -1,0 0,0 0,0 0,0 -1,0 0,1 0,0 0,0 -1,0 0,0 0,0 0,0 -1,0 0,0 z"
         id="path130"
         inkscape:connector-curvature="0"
         style="fill:#000000;fill-rule:nonzero" /></g><g
       transform="translate(5.9999576,305)"
       id="g132"><path
         d="m 1100,1095 0,11 0,0 -1,0 0,0 0,0 0,0 -1,0 0,0 0,0 0,-1 -1,0 0,0 0,0 0,0 -1,0 0,0 0,-1 0,0 0,0 -1,0 0,0 0,-1 0,0 0,0 0,0 0,-1 0,0 0,0 -1,0 0,-1 0,0 0,0 0,-1 0,0 0,0 0,0 0,-1 1,0 0,0 0,-1 0,0 0,0 0,0 0,-1 0,0 0,0 1,0 0,0 0,-1 0,0 0,0 1,0 0,0 0,0 0,-1 1,0 0,0 0,0 0,0 1,0 0,0 0,0 0,0 1,0 0,0 z m 100,11 -100,0 0,-11 100,0 0,11 z m 0,0 0,-11 0,0 1,0 0,0 0,0 0,0 1,0 0,0 0,0 0,0 1,0 0,1 0,0 0,0 1,0 0,0 0,0 0,1 0,0 1,0 0,0 0,0 0,1 0,0 0,0 0,0 0,1 0,0 1,0 0,1 0,0 0,0 0,0 0,1 0,0 0,0 0,1 -1,0 0,0 0,0 0,1 0,0 0,0 0,0 0,1 0,0 -1,0 0,0 0,0 0,1 0,0 -1,0 0,0 0,0 0,0 -1,0 0,1 0,0 0,0 -1,0 0,0 0,0 0,0 -1,0 0,0 z"
         id="path134"
         inkscape:connector-curvature="0"
         style="fill:#000000;fill-rule:nonzero" /></g><g
       transform="translate(5.9999576,305)"
       id="g136"><path
         d="m 1100,1195 0,11 0,0 -1,0 0,0 0,0 0,0 -1,0 0,0 0,0 0,-1 -1,0 0,0 0,0 0,0 -1,0 0,0 0,-1 0,0 0,0 -1,0 0,0 0,-1 0,0 0,0 0,0 0,-1 0,0 0,0 -1,0 0,-1 0,0 0,0 0,-1 0,0 0,0 0,0 0,-1 1,0 0,0 0,-1 0,0 0,0 0,0 0,-1 0,0 0,0 1,0 0,0 0,-1 0,0 0,0 1,0 0,0 0,0 0,-1 1,0 0,0 0,0 0,0 1,0 0,0 0,0 0,0 1,0 0,0 z m 100,11 -100,0 0,-11 100,0 0,11 z m 0,0 0,-11 0,0 1,0 0,0 0,0 0,0 1,0 0,0 0,0 0,0 1,0 0,1 0,0 0,0 1,0 0,0 0,0 0,1 0,0 1,0 0,0 0,0 0,1 0,0 0,0 0,0 0,1 0,0 1,0 0,1 0,0 0,0 0,0 0,1 0,0 0,0 0,1 -1,0 0,0 0,0 0,1 0,0 0,0 0,0 0,1 0,0 -1,0 0,0 0,0 0,1 0,0 -1,0 0,0 0,0 0,0 -1,0 0,1 0,0 0,0 -1,0 0,0 0,0 0,0 -1,0 0,0 z"
         id="path138"
         inkscape:connector-curvature="0"
         style="fill:#000000;fill-rule:nonzero" /></g><g
       transform="translate(5.9999576,305)"
       id="g140"><path
         d="m 1100,1295 0,11 0,0 -1,0 0,0 0,0 0,0 -1,0 0,0 0,0 0,-1 -1,0 0,0 0,0 0,0 -1,0 0,0 0,-1 0,0 0,0 -1,0 0,0 0,-1 0,0 0,0 0,0 0,-1 0,0 0,0 -1,0 0,-1 0,0 0,0 0,-1 0,0 0,0 0,0 0,-1 1,0 0,0 0,-1 0,0 0,0 0,0 0,-1 0,0 0,0 1,0 0,0 0,-1 0,0 0,0 1,0 0,0 0,0 0,-1 1,0 0,0 0,0 0,0 1,0 0,0 0,0 0,0 1,0 0,0 z m 100,11 -100,0 0,-11 100,0 0,11 z m 0,0 0,-11 0,0 1,0 0,0 0,0 0,0 1,0 0,0 0,0 0,0 1,0 0,1 0,0 0,0 1,0 0,0 0,0 0,1 0,0 1,0 0,0 0,0 0,1 0,0 0,0 0,0 0,1 0,0 1,0 0,1 0,0 0,0 0,0 0,1 0,0 0,0 0,1 -1,0 0,0 0,0 0,1 0,0 0,0 0,0 0,1 0,0 -1,0 0,0 0,0 0,1 0,0 -1,0 0,0 0,0 0,0 -1,0 0,1 0,0 0,0 -1,0 0,0 0,0 0,0 -1,0 0,0 z"
         id="path142"
         inkscape:connector-curvature="0"
         style="fill:#000000;fill-rule:nonzero" /></g><g
       transform="translate(5.9999576,-95)"
       id="g144"><path
         d="m 0,1395 0,11 0,0 -1,0 0,0 0,0 0,0 -1,0 0,0 0,0 0,-1 -1,0 0,0 0,0 0,0 -1,0 0,0 0,-1 0,0 0,0 -1,0 0,0 0,-1 0,0 0,0 0,0 0,-1 0,0 0,0 -1,0 0,-1 0,0 0,0 0,-1 0,0 0,0 0,0 0,-1 1,0 0,0 0,-1 0,0 0,0 0,0 0,-1 0,0 0,0 1,0 0,0 0,-1 0,0 0,0 1,0 0,0 0,0 0,-1 1,0 0,0 0,0 0,0 1,0 0,0 0,0 0,0 1,0 0,0 z m 100,11 -100,0 0,-11 100,0 0,11 z m 0,0 0,-11 0,0 1,0 0,0 0,0 0,0 1,0 0,0 0,0 0,0 1,0 0,1 0,0 0,0 1,0 0,0 0,0 0,1 0,0 1,0 0,0 0,0 0,1 0,0 0,0 0,0 0,1 0,0 1,0 0,1 0,0 0,0 0,0 0,1 0,0 0,0 0,1 -1,0 0,0 0,0 0,1 0,0 0,0 0,0 0,1 0,0 -1,0 0,0 0,0 0,1 0,0 -1,0 0,0 0,0 0,0 -1,0 0,1 0,0 0,0 -1,0 0,0 0,0 0,0 -1,0 0,0 z"
         id="path146"
         inkscape:connector-curvature="0"
         style="fill:#000000;fill-rule:nonzero" /></g><g
       transform="translate(5.9999576,305)"
       id="g148"><path
         d="m 1100,1395 0,11 0,0 -1,0 0,0 0,0 0,0 -1,0 0,0 0,0 0,-1 -1,0 0,0 0,0 0,0 -1,0 0,0 0,-1 0,0 0,0 -1,0 0,0 0,-1 0,0 0,0 0,0 0,-1 0,0 0,0 -1,0 0,-1 0,0 0,0 0,-1 0,0 0,0 0,0 0,-1 1,0 0,0 0,-1 0,0 0,0 0,0 0,-1 0,0 0,0 1,0 0,0 0,-1 0,0 0,0 1,0 0,0 0,0 0,-1 1,0 0,0 0,0 0,0 1,0 0,0 0,0 0,0 1,0 0,0 z m 100,11 -100,0 0,-11 100,0 0,11 z m 0,0 0,-11 0,0 1,0 0,0 0,0 0,0 1,0 0,0 0,0 0,0 1,0 0,1 0,0 0,0 1,0 0,0 0,0 0,1 0,0 1,0 0,0 0,0 0,1 0,0 0,0 0,0 0,1 0,0 1,0 0,1 0,0 0,0 0,0 0,1 0,0 0,0 0,1 -1,0 0,0 0,0 0,1 0,0 0,0 0,0 0,1 0,0 -1,0 0,0 0,0 0,1 0,0 -1,0 0,0 0,0 0,0 -1,0 0,1 0,0 0,0 -1,0 0,0 0,0 0,0 -1,0 0,0 z"
         id="path150"
         inkscape:connector-curvature="0"
         style="fill:#000000;fill-rule:nonzero" /></g><g
       transform="translate(5.9999576,305)"
       id="g152"><path
         d="m 495,1700 11,0 0,0 0,1 0,0 0,0 0,0 0,1 0,0 -1,0 0,0 0,1 0,0 0,0 0,0 0,1 -1,0 0,0 0,0 0,0 0,1 -1,0 0,0 0,0 0,0 -1,0 0,0 0,0 0,0 -1,1 0,0 0,0 0,0 -1,0 0,0 0,0 -1,0 0,0 0,-1 0,0 -1,0 0,0 0,0 0,0 -1,0 0,0 0,0 0,-1 -1,0 0,0 0,0 0,0 0,-1 0,0 -1,0 0,0 0,-1 0,0 0,0 0,0 0,-1 0,0 0,0 0,0 0,-1 0,0 z m 11,-100 0,100 -11,0 0,-100 11,0 z m 0,0 -11,0 0,0 0,-1 0,0 0,0 0,0 0,-1 0,0 0,0 0,0 0,-1 0,0 1,0 0,0 0,-1 0,0 0,0 0,0 1,0 0,-1 0,0 0,0 1,0 0,0 0,0 0,0 1,0 0,0 0,-1 0,0 1,0 0,0 0,0 1,0 0,0 0,0 0,0 1,1 0,0 0,0 0,0 1,0 0,0 0,0 0,0 1,0 0,1 0,0 0,0 0,0 1,0 0,1 0,0 0,0 0,0 0,1 0,0 1,0 0,0 0,1 0,0 0,0 0,0 0,1 0,0 z"
         id="path154"
         inkscape:connector-curvature="0"
         style="fill:#000000;fill-rule:nonzero" /></g><g
       transform="translate(5.9999576,305)"
       id="g3216"><path
         style="fill:#000000;fill-rule:nonzero"
         inkscape:connector-curvature="0"
         id="path3218"
         d="m 0,1195 0,11 0,0 -1,0 0,0 0,0 0,0 -1,0 0,0 0,0 0,-1 -1,0 0,0 0,0 0,0 -1,0 0,0 0,-1 0,0 0,0 -1,0 0,0 0,-1 0,0 0,0 0,0 0,-1 0,0 0,0 -1,0 0,-1 0,0 0,0 0,-1 0,0 0,0 0,0 0,-1 1,0 0,0 0,-1 0,0 0,0 0,0 0,-1 0,0 0,0 1,0 0,0 0,-1 0,0 0,0 1,0 0,0 0,0 0,-1 1,0 0,0 0,0 0,0 1,0 0,0 0,0 0,0 1,0 0,0 z m 100,11 -100,0 0,-11 100,0 0,11 z m 0,0 0,-11 0,0 1,0 0,0 0,0 0,0 1,0 0,0 0,0 0,0 1,0 0,1 0,0 0,0 1,0 0,0 0,0 0,1 0,0 1,0 0,0 0,0 0,1 0,0 0,0 0,0 0,1 0,0 1,0 0,1 0,0 0,0 0,0 0,1 0,0 0,0 0,1 -1,0 0,0 0,0 0,1 0,0 0,0 0,0 0,1 0,0 -1,0 0,0 0,0 0,1 0,0 -1,0 0,0 0,0 0,0 -1,0 0,1 0,0 0,0 -1,0 0,0 0,0 0,0 -1,0 0,0 z" /></g><g
       transform="translate(5.9999576,305)"
       id="g3220"><path
         style="fill:#000000;fill-rule:nonzero"
         inkscape:connector-curvature="0"
         id="path3222"
         d="m 0,1295 0,11 0,0 -1,0 0,0 0,0 0,0 -1,0 0,0 0,0 0,-1 -1,0 0,0 0,0 0,0 -1,0 0,0 0,-1 0,0 0,0 -1,0 0,0 0,-1 0,0 0,0 0,0 0,-1 0,0 0,0 -1,0 0,-1 0,0 0,0 0,-1 0,0 0,0 0,0 0,-1 1,0 0,0 0,-1 0,0 0,0 0,0 0,-1 0,0 0,0 1,0 0,0 0,-1 0,0 0,0 1,0 0,0 0,0 0,-1 1,0 0,0 0,0 0,0 1,0 0,0 0,0 0,0 1,0 0,0 z m 100,11 -100,0 0,-11 100,0 0,11 z m 0,0 0,-11 0,0 1,0 0,0 0,0 0,0 1,0 0,0 0,0 0,0 1,0 0,1 0,0 0,0 1,0 0,0 0,0 0,1 0,0 1,0 0,0 0,0 0,1 0,0 0,0 0,0 0,1 0,0 1,0 0,1 0,0 0,0 0,0 0,1 0,0 0,0 0,1 -1,0 0,0 0,0 0,1 0,0 0,0 0,0 0,1 0,0 -1,0 0,0 0,0 0,1 0,0 -1,0 0,0 0,0 0,0 -1,0 0,1 0,0 0,0 -1,0 0,0 0,0 0,0 -1,0 0,0 z" /></g><g
       transform="translate(5.9999576,305)"
       id="g3224"><path
         style="fill:#000000;fill-rule:nonzero"
         inkscape:connector-curvature="0"
         id="path3226"
         d="m 0,1395 0,11 0,0 -1,0 0,0 0,0 0,0 -1,0 0,0 0,0 0,-1 -1,0 0,0 0,0 0,0 -1,0 0,0 0,-1 0,0 0,0 -1,0 0,0 0,-1 0,0 0,0 0,0 0,-1 0,0 0,0 -1,0 0,-1 0,0 0,0 0,-1 0,0 0,0 0,0 0,-1 1,0 0,0 0,-1 0,0 0,0 0,0 0,-1 0,0 0,0 1,0 0,0 0,-1 0,0 0,0 1,0 0,0 0,0 0,-1 1,0 0,0 0,0 0,0 1,0 0,0 0,0 0,0 1,0 0,0 z m 100,11 -100,0 0,-11 100,0 0,11 z m 0,0 0,-11 0,0 1,0 0,0 0,0 0,0 1,0 0,0 0,0 0,0 1,0 0,1 0,0 0,0 1,0 0,0 0,0 0,1 0,0 1,0 0,0 0,0 0,1 0,0 0,0 0,0 0,1 0,0 1,0 0,1 0,0 0,0 0,0 0,1 0,0 0,0 0,1 -1,0 0,0 0,0 0,1 0,0 0,0 0,0 0,1 0,0 -1,0 0,0 0,0 0,1 0,0 -1,0 0,0 0,0 0,0 -1,0 0,1 0,0 0,0 -1,0 0,0 0,0 0,0 -1,0 0,0 z" /></g><text
       transform="scale(0.99997991,1.0000201)"
       sodipodi:linespacing="125%"
       id="text3340"
       y="1510.2292"
       x="165.66313"
       style="font-size:66.66532898px;font-style:normal;font-weight:normal;line-height:125%;letter-spacing:0px;word-spacing:0px;fill:#000000;fill-opacity:1;stroke:none;font-family:Sans"
       xml:space="preserve"><tspan
         style="font-size:44.44355011px"
         y="1510.2292"
         x="165.66313"
         id="tspan3342"
         sodipodi:role="line">RGB R</tspan></text>
<text
       xml:space="preserve"
       style="font-size:66.66532898px;font-style:normal;font-weight:normal;line-height:125%;letter-spacing:0px;word-spacing:0px;fill:#000000;fill-opacity:1;stroke:none;font-family:Sans"
       x="165.66313"
       y="1610.2272"
       id="text3344"
       sodipodi:linespacing="125%"
       transform="scale(0.99997991,1.0000201)"><tspan
         sodipodi:role="line"
         id="tspan3346"
         x="165.66313"
         y="1610.2272"
         style="font-size:44.44355011px">RGB G</tspan></text>
<text
       transform="scale(0.99997991,1.0000201)"
       sodipodi:linespacing="125%"
       id="text3348"
       y="1710.2252"
       x="165.66313"
       style="font-size:66.66532898px;font-style:normal;font-weight:normal;line-height:125%;letter-spacing:0px;word-spacing:0px;fill:#000000;fill-opacity:1;stroke:none;font-family:Sans"
       xml:space="preserve"><tspan
         style="font-size:44.44355011px"
         y="1710.2252"
         x="165.66313"
         id="tspan3350"
         sodipodi:role="line">RGB B</tspan></text>
<g
       transform="translate(5.9999576,105)"
       id="g3352"><path
         style="fill:#000000;fill-rule:nonzero"
         inkscape:connector-curvature="0"
         id="path3354"
         d="m 1100,695 0,11 0,0 -1,0 0,0 0,0 0,0 -1,0 0,0 0,0 0,-1 -1,0 0,0 0,0 0,0 -1,0 0,0 0,-1 0,0 0,0 -1,0 0,0 0,-1 0,0 0,0 0,0 0,-1 0,0 0,0 -1,0 0,-1 0,0 0,0 0,-1 0,0 0,0 0,0 0,-1 1,0 0,0 0,-1 0,0 0,0 0,0 0,-1 0,0 0,0 1,0 0,0 0,-1 0,0 0,0 1,0 0,0 0,0 0,-1 1,0 0,0 0,0 0,0 1,0 0,0 0,0 0,0 1,0 0,0 z m 100,11 -100,0 0,-11 100,0 0,11 z m 0,0 0,-11 0,0 1,0 0,0 0,0 0,0 1,0 0,0 0,0 0,0 1,0 0,1 0,0 0,0 1,0 0,0 0,0 0,1 0,0 1,0 0,0 0,0 0,1 0,0 0,0 0,0 0,1 0,0 1,0 0,1 0,0 0,0 0,0 0,1 0,0 0,0 0,1 -1,0 0,0 0,0 0,1 0,0 0,0 0,0 0,1 0,0 -1,0 0,0 0,0 0,1 0,0 -1,0 0,0 0,0 0,0 -1,0 0,1 0,0 0,0 -1,0 0,0 0,0 0,0 -1,0 0,0 z" /></g><g
       id="g3356"
       transform="translate(5.9999576,5)"><path
         d="m 1100,695 0,11 0,0 -1,0 0,0 0,0 0,0 -1,0 0,0 0,0 0,-1 -1,0 0,0 0,0 0,0 -1,0 0,0 0,-1 0,0 0,0 -1,0 0,0 0,-1 0,0 0,0 0,0 0,-1 0,0 0,0 -1,0 0,-1 0,0 0,0 0,-1 0,0 0,0 0,0 0,-1 1,0 0,0 0,-1 0,0 0,0 0,0 0,-1 0,0 0,0 1,0 0,0 0,-1 0,0 0,0 1,0 0,0 0,0 0,-1 1,0 0,0 0,0 0,0 1,0 0,0 0,0 0,0 1,0 0,0 z m 100,11 -100,0 0,-11 100,0 0,11 z m 0,0 0,-11 0,0 1,0 0,0 0,0 0,0 1,0 0,0 0,0 0,0 1,0 0,1 0,0 0,0 1,0 0,0 0,0 0,1 0,0 1,0 0,0 0,0 0,1 0,0 0,0 0,0 0,1 0,0 1,0 0,1 0,0 0,0 0,0 0,1 0,0 0,0 0,1 -1,0 0,0 0,0 0,1 0,0 0,0 0,0 0,1 0,0 -1,0 0,0 0,0 0,1 0,0 -1,0 0,0 0,0 0,0 -1,0 0,1 0,0 0,0 -1,0 0,0 0,0 0,0 -1,0 0,0 z"
         id="path3358"
         inkscape:connector-curvature="0"
         style="fill:#000000;fill-rule:nonzero" /></g><g
       transform="translate(5.9999576,-95)"
       id="g3360"><path
         style="fill:#000000;fill-rule:nonzero"
         inkscape:connector-curvature="0"
         id="path3362"
         d="m 1100,695 0,11 0,0 -1,0 0,0 0,0 0,0 -1,0 0,0 0,0 0,-1 -1,0 0,0 0,0 0,0 -1,0 0,0 0,-1 0,0 0,0 -1,0 0,0 0,-1 0,0 0,0 0,0 0,-1 0,0 0,0 -1,0 0,-1 0,0 0,0 0,-1 0,0 0,0 0,0 0,-1 1,0 0,0 0,-1 0,0 0,0 0,0 0,-1 0,0 0,0 1,0 0,0 0,-1 0,0 0,0 1,0 0,0 0,0 0,-1 1,0 0,0 0,0 0,0 1,0 0,0 0,0 0,0 1,0 0,0 z m 100,11 -100,0 0,-11 100,0 0,11 z m 0,0 0,-11 0,0 1,0 0,0 0,0 0,0 1,0 0,0 0,0 0,0 1,0 0,1 0,0 0,0 1,0 0,0 0,0 0,1 0,0 1,0 0,0 0,0 0,1 0,0 0,0 0,0 0,1 0,0 1,0 0,1 0,0 0,0 0,0 0,1 0,0 0,0 0,1 -1,0 0,0 0,0 0,1 0,0 0,0 0,0 0,1 0,0 -1,0 0,0 0,0 0,1 0,0 -1,0 0,0 0,0 0,0 -1,0 0,1 0,0 0,0 -1,0 0,0 0,0 0,0 -1,0 0,0 z" /></g><g
       id="g3364"
       transform="translate(5.9999576,-195)"><path
         d="m 1100,695 0,11 0,0 -1,0 0,0 0,0 0,0 -1,0 0,0 0,0 0,-1 -1,0 0,0 0,0 0,0 -1,0 0,0 0,-1 0,0 0,0 -1,0 0,0 0,-1 0,0 0,0 0,0 0,-1 0,0 0,0 -1,0 0,-1 0,0 0,0 0,-1 0,0 0,0 0,0 0,-1 1,0 0,0 0,-1 0,0 0,0 0,0 0,-1 0,0 0,0 1,0 0,0 0,-1 0,0 0,0 1,0 0,0 0,0 0,-1 1,0 0,0 0,0 0,0 1,0 0,0 0,0 0,0 1,0 0,0 z m 100,11 -100,0 0,-11 100,0 0,11 z m 0,0 0,-11 0,0 1,0 0,0 0,0 0,0 1,0 0,0 0,0 0,0 1,0 0,1 0,0 0,0 1,0 0,0 0,0 0,1 0,0 1,0 0,0 0,0 0,1 0,0 0,0 0,0 0,1 0,0 1,0 0,1 0,0 0,0 0,0 0,1 0,0 0,0 0,1 -1,0 0,0 0,0 0,1 0,0 0,0 0,0 0,1 0,0 -1,0 0,0 0,0 0,1 0,0 -1,0 0,0 0,0 0,0 -1,0 0,1 0,0 0,0 -1,0 0,0 0,0 0,0 -1,0 0,0 z"
         id="path3366"
         inkscape:connector-curvature="0"
         style="fill:#000000;fill-rule:nonzero" /></g><g
       transform="translate(5.9999576,-295)"
       id="g3368"><path
         style="fill:#000000;fill-rule:nonzero"
         inkscape:connector-curvature="0"
         id="path3370"
         d="m 1100,695 0,11 0,0 -1,0 0,0 0,0 0,0 -1,0 0,0 0,0 0,-1 -1,0 0,0 0,0 0,0 -1,0 0,0 0,-1 0,0 0,0 -1,0 0,0 0,-1 0,0 0,0 0,0 0,-1 0,0 0,0 -1,0 0,-1 0,0 0,0 0,-1 0,0 0,0 0,0 0,-1 1,0 0,0 0,-1 0,0 0,0 0,0 0,-1 0,0 0,0 1,0 0,0 0,-1 0,0 0,0 1,0 0,0 0,0 0,-1 1,0 0,0 0,0 0,0 1,0 0,0 0,0 0,0 1,0 0,0 z m 100,11 -100,0 0,-11 100,0 0,11 z m 0,0 0,-11 0,0 1,0 0,0 0,0 0,0 1,0 0,0 0,0 0,0 1,0 0,1 0,0 0,0 1,0 0,0 0,0 0,1 0,0 1,0 0,0 0,0 0,1 0,0 0,0 0,0 0,1 0,0 1,0 0,1 0,0 0,0 0,0 0,1 0,0 0,0 0,1 -1,0 0,0 0,0 0,1 0,0 0,0 0,0 0,1 0,0 -1,0 0,0 0,0 0,1 0,0 -1,0 0,0 0,0 0,0 -1,0 0,1 0,0 0,0 -1,0 0,0 0,0 0,0 -1,0 0,0 z" /></g><text
       xml:space="preserve"
       style="font-size:66.66532898px;font-style:normal;font-weight:normal;line-height:125%;letter-spacing:0px;word-spacing:0px;fill:#000000;fill-opacity:1;stroke:none;font-family:Sans"
       x="582.2464"
       y="1176.5027"
       id="text3395"
       sodipodi:linespacing="125%"
       transform="scale(0.99997991,1.0000201)"><tspan
         sodipodi:role="line"
         id="tspan3397"
         x="582.2464"
         y="1176.5027"
         style="font-size:44.44355011px">SMD</tspan></text>
<text
       xml:space="preserve"
       style="font-size:66.66532898px;font-style:normal;font-weight:normal;line-height:125%;letter-spacing:0px;word-spacing:0px;fill:#000000;fill-opacity:1;stroke:none;font-family:Sans"
       x="883.37573"
       y="826.20813"
       id="text3399"
       sodipodi:linespacing="125%"
       transform="scale(0.99997991,1.0000201)"><tspan
         sodipodi:role="line"
         id="tspan3401"
         x="883.37573"
         y="826.20813"
         style="font-size:44.44355011px">USB D-</tspan></text>
<text
       transform="scale(0.99997991,1.0000201)"
       sodipodi:linespacing="125%"
       id="text3403"
       y="726.21161"
       x="883.37573"
       style="font-size:66.66532898px;font-style:normal;font-weight:normal;line-height:125%;letter-spacing:0px;word-spacing:0px;fill:#000000;fill-opacity:1;stroke:none;font-family:Sans"
       xml:space="preserve"><tspan
         style="font-size:44.44355011px"
         y="726.21161"
         x="883.37573"
         id="tspan3405"
         sodipodi:role="line">USB D+</tspan></text>
<text
       xml:space="preserve"
       style="font-size:66.66532898px;font-style:normal;font-weight:normal;line-height:125%;letter-spacing:0px;word-spacing:0px;fill:#000000;fill-opacity:1;stroke:none;font-family:Sans"
       x="905.59839"
       y="626.21362"
       id="text3407"
       sodipodi:linespacing="125%"
       transform="scale(0.99997991,1.0000201)"><tspan
         sodipodi:role="line"
         id="tspan3409"
         x="905.59839"
         y="626.21362"
         style="font-size:44.44355011px">RESET</tspan></text>
<text
       transform="scale(0.99997991,1.0000201)"
       sodipodi:linespacing="125%"
       id="text3411"
       y="526.21564"
       x="905.59839"
       style="font-size:66.66532898px;font-style:normal;font-weight:normal;line-height:125%;letter-spacing:0px;word-spacing:0px;fill:#000000;fill-opacity:1;stroke:none;font-family:Sans"
       xml:space="preserve"><tspan
         style="font-size:44.44355011px"
         y="526.21564"
         x="905.59839"
         id="tspan3413"
         sodipodi:role="line">SETUP</tspan></text>
<text
       xml:space="preserve"
       style="font-size:66.66532898px;font-style:normal;font-weight:normal;line-height:125%;letter-spacing:0px;word-spacing:0px;fill:#000000;fill-opacity:1;stroke:none;font-family:Sans"
       x="905.59839"
       y="426.21765"
       id="text3415"
       sodipodi:linespacing="125%"
       transform="scale(0.99997991,1.0000201)"><tspan
         sodipodi:role="line"
         id="tspan3417"
         x="905.59839"
         y="426.21765"
         style="font-size:44.44355011px">SMPS</tspan></text>
</g></svg>