<?xml version="1.0" encoding="UTF-8" standalone="no"?>
<!-- Creator: CorelDRAW X6 -->

<svg
   xmlns:dc="http://purl.org/dc/elements/1.1/"
   xmlns:cc="http://creativecommons.org/ns#"
   xmlns:rdf="http://www.w3.org/1999/02/22-rdf-syntax-ns#"
   xmlns:svg="http://www.w3.org/2000/svg"
   xmlns="http://www.w3.org/2000/svg"
   xmlns:sodipodi="http://sodipodi.sourceforge.net/DTD/sodipodi-0.dtd"
   xmlns:inkscape="http://www.inkscape.org/namespaces/inkscape"
   xml:space="preserve"
   width="81"
   height="154.8"
   version="1.1"
   shape-rendering="geometricPrecision"
   text-rendering="geometricPrecision"
   image-rendering="optimizeQuality"
   clip-rule="evenodd"
   viewBox="0 0 900 1720.0001"
   id="svg2"
   inkscape:version="0.48.5 r10040"
   sodipodi:docname="photon_particle_pcb.svg"
   style="fill-rule:evenodd"><metadata
     id="metadata85"><rdf:RDF><cc:Work
         rdf:about=""><dc:format>image/svg+xml</dc:format><dc:type
           rdf:resource="http://purl.org/dc/dcmitype/StillImage" /></cc:Work></rdf:RDF></metadata><defs
     id="defs83" /><sodipodi:namedview
     pagecolor="#ffffff"
     bordercolor="#666666"
     borderopacity="1"
     objecttolerance="10"
     gridtolerance="10"
     guidetolerance="10"
     inkscape:pageopacity="0"
     inkscape:pageshadow="2"
     inkscape:window-width="1280"
     inkscape:window-height="744"
     id="namedview81"
     showgrid="false"
     inkscape:zoom="4.625"
     inkscape:cx="72.499263"
     inkscape:cy="108.57633"
     inkscape:window-x="0"
     inkscape:window-y="0"
     inkscape:window-maximized="0"
     inkscape:current-layer="svg2"
     units="in"
     showguides="true"
     inkscape:guide-bbox="true" /><g
     id="silkscreen"><g
       transform="translate(0,2.242131e-5)"
       id="g4077"><polygon
         id="board_outline"
         points="1511,801 191,800 71,741 71,61 187,2 1511,0 1511,267 1579,267 1580,533 1511,533 "
         style="fill:none;stroke:#000000;stroke-width:6.94488001"
         transform="matrix(0,-1,1,0,53.472423,1587.5277)" /><path
         d="m 759.91686,253.5277 c 1,0 2,1 3,1 1,0 2,1 3,2 0,0 1,1 1,2 1,1 1,2 1,3 l 0,0 c 1,-3 2,-5 3,-6 2,-2 3,-3 6,-3 1,0 3,1 4,1 1,1 2,1 3,2 1,2 2,3 2,4 1,2 1,4 1,6 0,2 0,3 0,5 -1,2 -1,3 -2,4 l -4,0 c 1,-1 1,-3 2,-4 0,-2 0,-3 0,-5 0,-1 0,-3 0,-4 0,-1 -1,-2 -1,-2 -1,-1 -2,-1 -3,-2 0,0 -1,0 -2,0 -2,0 -2,0 -3,0 -1,1 -2,1 -2,2 -1,1 -1,2 -1,3 0,1 -1,2 -1,4 l 0,3 -3,0 0,-3 c 0,-1 0,-3 -1,-4 0,-1 0,-1 -1,-2 -1,-1 -1,-1 -2,-2 -1,0 -2,0 -3,0 -1,0 -1,0 -2,0 -1,1 -1,1 -2,1 0,1 0,2 -1,2 0,1 0,2 0,3 0,1 0,3 1,4 0,2 1,3 2,4 l -3,2 c -1,0 -1,-1 -1,-2 -1,-1 -1,-1 -2,-2 0,-1 0,-2 0,-3 -1,-1 -1,-2 -1,-3 0,-2 1,-3 1,-5 0,-1 1,-2 2,-3 1,-1 1,-1 3,-2 1,0 2,-1 3,-1 z m -8,-26 0,-5 35,11 0,5 -35,11 0,-4 22,-7 c 1,-1 3,-1 4,-1 1,-1 3,-1 4,-1 -1,-1 -3,-1 -4,-1 -1,-1 -3,-1 -4,-2 l -22,-6 z m 8,-28 c 1,0 2,0 3,1 1,0 2,0 3,1 0,1 1,2 1,3 1,0 1,1 1,3 l 0,0 c 1,-3 2,-5 3,-7 2,-1 3,-2 6,-2 1,0 3,0 4,1 1,0 2,1 3,2 1,1 2,2 2,4 1,2 1,4 1,6 0,1 0,3 0,5 -1,1 -1,3 -2,4 l -4,0 c 1,-1 1,-3 2,-5 0,-1 0,-3 0,-4 0,-2 0,-3 0,-4 0,-1 -1,-2 -1,-3 -1,0 -2,-1 -3,-1 0,0 -1,-1 -2,-1 -2,0 -2,1 -3,1 -1,0 -2,1 -2,2 -1,1 -1,2 -1,3 0,1 -1,2 -1,3 l 0,4 -3,0 0,-4 c 0,-1 0,-2 -1,-3 0,-1 0,-2 -1,-2 -1,-1 -1,-2 -2,-2 -1,0 -2,-1 -3,-1 -1,0 -1,1 -2,1 -1,0 -1,1 -2,1 0,1 0,1 -1,2 0,1 0,2 0,2 0,2 0,4 1,5 0,1 1,2 2,4 l -3,2 c -1,-1 -1,-2 -1,-2 -1,-1 -1,-2 -2,-3 0,-1 0,-1 0,-2 -1,-1 -1,-2 -1,-4 0,-1 1,-3 1,-4 0,-1 1,-2 2,-3 1,-1 1,-2 3,-2 1,-1 2,-1 3,-1 z"
         id="path8"
         inkscape:connector-curvature="0"
         style="fill:#000000;fill-rule:nonzero" /><path
         d="m 771.91686,368.5277 15,0 0,4 -35,0 0,-9 c 0,-4 1,-7 2,-9 2,-2 4,-3 8,-3 1,0 2,0 3,1 1,0 2,1 3,1 1,1 1,2 2,2 0,1 1,2 1,3 l 16,-9 0,5 -15,8 0,6 z m -4,0 0,-4 c 0,-2 0,-3 0,-4 0,-1 -1,-2 -1,-2 -1,-1 -1,-1 -2,-2 -1,0 -2,0 -3,0 -1,0 -2,0 -3,0 -1,1 -1,1 -2,2 0,0 -1,1 -1,2 0,1 0,2 0,4 l 0,4 12,0 z m 9,-43 c 2,0 3,0 4,1 2,0 3,1 3,2 1,1 2,2 2,4 1,1 1,3 1,5 0,2 0,3 0,5 -1,1 -1,2 -2,4 l -4,0 c 0,-1 1,-2 1,-2 0,-1 0,-2 1,-2 0,-1 0,-2 0,-3 0,-1 0,-1 0,-2 0,-3 0,-5 -1,-6 -1,-1 -3,-2 -4,-2 -1,0 -2,1 -3,1 0,0 -1,0 -1,1 -1,1 -1,1 -2,2 0,1 -1,2 -1,4 -1,1 -2,3 -2,4 -1,1 -2,1 -3,2 0,1 -1,1 -2,2 -1,0 -3,0 -4,0 -1,0 -2,0 -4,-1 -1,0 -2,-1 -2,-2 -1,-1 -2,-2 -2,-3 0,-1 -1,-3 -1,-4 0,-2 1,-4 1,-5 0,-2 1,-3 1,-4 l 4,1 c -1,1 -1,2 -1,4 -1,1 -1,2 -1,4 0,2 1,3 2,4 0,1 2,2 3,2 1,0 2,0 3,-1 0,0 1,0 1,-1 1,0 1,-1 2,-2 0,-1 1,-2 1,-3 1,-2 1,-3 2,-4 1,-1 1,-2 2,-3 1,-1 2,-1 3,-1 1,-1 2,-1 3,-1 z m 10,-17 0,4 -31,0 0,10 -4,0 0,-24 4,0 0,10 31,0 z"
         id="path10"
         inkscape:connector-curvature="0"
         style="fill:#000000;fill-rule:nonzero" /><path
         d="m 767.91686,575.5277 0,-11 17,0 c 1,1 1,2 1,2 0,1 0,2 1,3 0,1 0,2 0,3 0,1 0,2 0,3 0,3 0,5 -1,7 -1,2 -2,4 -4,5 -1,1 -3,2 -5,3 -3,1 -5,1 -8,1 -3,0 -5,-1 -7,-1 -2,-1 -4,-2 -6,-4 -1,-1 -3,-3 -3,-5 -1,-2 -2,-4 -2,-7 0,-2 1,-4 1,-5 0,-2 1,-3 1,-5 l 4,2 c 0,1 0,1 -1,2 0,1 0,1 0,2 0,1 0,1 -1,2 0,1 0,2 0,2 0,2 1,4 1,5 1,2 2,3 3,4 1,1 3,2 4,2 2,1 4,1 6,1 2,0 4,0 6,0 2,-1 3,-2 4,-3 1,0 2,-2 3,-3 1,-2 1,-4 1,-6 0,0 0,-1 0,-2 0,0 0,-1 0,-1 0,-1 0,-1 0,-2 0,0 0,0 -1,-1 l -10,0 0,7 -4,0 z m 19,-45 0,5 -29,16 0,1 c 1,0 2,-1 3,-1 1,0 3,0 4,0 1,0 2,0 3,0 l 19,0 0,5 -35,0 0,-6 28,-16 0,0 c -1,0 -2,0 -3,0 -1,0 -1,0 -2,0 0,0 -1,0 -1,0 -1,0 -1,0 -2,0 0,0 -1,0 -1,0 l -19,0 0,-4 35,0 z m -18,-35 c 3,0 5,0 8,1 2,0 4,2 5,3 2,1 3,3 3,5 1,2 2,5 2,7 l 0,9 -35,0 0,-10 c 0,-2 0,-4 1,-6 1,-2 2,-4 3,-5 2,-1 3,-3 5,-3 3,-1 5,-1 8,-1 z m 0,4 c -2,0 -4,1 -6,1 -2,1 -3,1 -4,2 -1,1 -2,3 -3,4 0,1 0,3 0,5 l 0,5 27,0 0,-4 c 0,-4 -1,-7 -4,-10 -2,-2 -5,-3 -10,-3 z"
         id="path12"
         inkscape:connector-curvature="0"
         style="fill:#000000;fill-rule:nonzero" /><path
         d="m 768.91686,637.5277 c 3,0 5,0 8,1 2,1 4,2 5,3 2,2 3,3 3,6 1,2 2,4 2,7 l 0,8 -35,0 0,-9 c 0,-3 0,-5 1,-7 1,-2 2,-3 3,-5 2,-1 3,-2 5,-3 3,-1 5,-1 8,-1 z m 0,5 c -2,0 -4,0 -6,0 -2,1 -3,2 -4,3 -1,1 -2,2 -3,3 0,2 0,3 0,5 l 0,5 27,0 0,-4 c 0,-4 -1,-7 -4,-9 -2,-2 -5,-3 -10,-3 z m 18,-15 -31,-13 0,18 -4,0 0,-23 3,0 32,14 0,4 z"
         id="path14"
         inkscape:connector-curvature="0"
         style="fill:#000000;fill-rule:nonzero" /><path
         d="m 768.91686,737.5277 c 3,0 5,0 8,1 2,1 4,2 5,3 2,2 3,4 3,6 1,2 2,4 2,7 l 0,8 -35,0 0,-9 c 0,-3 0,-5 1,-7 1,-2 2,-3 3,-5 2,-1 3,-2 5,-3 3,-1 5,-1 8,-1 z m 0,5 c -2,0 -4,0 -6,0 -2,1 -3,2 -4,3 -1,1 -2,2 -3,3 0,2 0,3 0,5 l 0,5 27,0 0,-4 c 0,-4 -1,-7 -4,-9 -2,-2 -5,-3 -10,-3 z m 3,-11 c -2,0 -4,0 -5,0 -2,0 -3,0 -5,-1 -1,0 -3,-1 -4,-2 -1,0 -3,-1 -4,-2 -1,-1 -1,-3 -2,-4 0,-2 -1,-4 -1,-6 0,0 0,-1 0,-1 0,0 0,-1 0,-1 0,0 1,-1 1,-1 0,0 0,-1 0,-1 l 4,0 c -1,1 -1,1 -1,2 0,1 0,1 0,2 0,1 0,3 1,4 0,1 0,2 1,2 1,1 1,2 2,2 1,1 2,1 3,2 1,0 2,0 3,0 1,1 3,1 4,1 l 0,0 c -1,-1 -1,-1 -2,-2 0,0 -1,-1 -1,-1 0,-1 -1,-1 -1,-2 0,-1 0,-2 0,-3 0,-1 0,-3 1,-4 0,-1 1,-2 2,-3 0,-1 2,-1 3,-2 1,0 3,-1 4,-1 2,0 4,1 5,1 2,1 3,1 4,2 1,1 2,2 2,4 1,1 1,2 1,4 0,2 0,3 -1,4 -1,2 -1,3 -3,4 -1,1 -3,2 -4,2 -2,1 -5,1 -7,1 z m 11,-11 c 0,-1 0,-2 0,-3 0,0 -1,-1 -2,-2 0,0 -1,-1 -2,-1 -1,0 -2,0 -4,0 -1,0 -2,0 -3,0 -1,0 -1,1 -2,1 0,1 -1,1 -1,2 -1,1 -1,2 -1,3 0,1 0,2 1,3 0,1 1,1 1,2 1,1 1,1 2,1 1,1 2,1 3,1 1,0 2,0 3,-1 1,0 2,0 3,-1 0,0 1,-1 2,-2 0,-1 0,-2 0,-3 z"
         id="path16"
         inkscape:connector-curvature="0"
         style="fill:#000000;fill-rule:nonzero" /><path
         d="m 767.91686,836.5277 c 3,0 6,1 8,2 2,0 4,1 6,3 1,1 2,3 3,5 1,2 1,5 1,7 l 0,9 -35,0 0,-10 c 0,-2 1,-4 1,-6 1,-2 2,-4 4,-5 1,-2 3,-3 5,-3 2,-1 5,-2 7,-2 z m 1,5 c -3,0 -5,0 -7,1 -1,0 -3,1 -4,2 -1,1 -2,2 -2,4 -1,1 -1,3 -1,5 l 0,5 27,0 0,-4 c 0,-4 -1,-8 -3,-10 -3,-2 -6,-3 -10,-3 z m -4,-20 c 0,-2 0,-3 0,-5 1,-1 1,-2 2,-3 1,-1 2,-2 4,-3 1,0 2,-1 4,-1 2,0 3,1 5,1 1,1 2,2 3,3 1,1 2,2 3,4 0,1 1,3 1,5 0,1 -1,2 -1,2 0,1 0,2 0,3 0,0 0,1 -1,2 0,0 0,1 0,1 l -4,0 c 0,0 0,-1 1,-1 0,-1 0,-2 0,-3 0,0 1,-1 1,-2 0,-1 0,-2 0,-2 0,-1 0,-3 -1,-4 0,-1 0,-1 -1,-2 -1,-1 -1,-1 -2,-2 -1,0 -2,0 -4,0 -2,0 -4,1 -5,2 -1,1 -2,3 -2,6 0,0 0,1 0,1 1,1 1,1 1,2 0,0 0,1 0,1 0,1 0,1 0,2 l -1,2 -17,-2 0,-16 4,0 0,13 10,1 c 0,-1 0,-2 0,-2 0,-1 0,-2 0,-3 z"
         id="path18"
         inkscape:connector-curvature="0"
         style="fill:#000000;fill-rule:nonzero" /><path
         d="m 768.91686,938.5277 c 3,0 6,1 8,1 2,1 4,2 5,4 2,1 3,3 4,5 0,2 1,4 1,7 l 0,9 -35,0 0,-10 c 0,-2 0,-5 1,-6 1,-2 2,-4 3,-5 2,-2 4,-3 6,-4 2,0 4,-1 7,-1 z m 0,5 c -2,0 -4,0 -6,1 -2,0 -3,1 -4,2 -1,1 -2,2 -2,4 -1,1 -1,3 -1,5 l 0,4 27,0 0,-4 c 0,-4 -1,-7 -4,-9 -2,-2 -5,-3 -10,-3 z m 10,-34 0,5 8,0 0,5 -8,0 0,16 -4,0 -23,-16 0,-5 23,0 0,-5 4,0 z m -4,10 -8,0 c -1,0 -2,0 -3,0 -1,0 -2,0 -3,0 -1,-1 -2,-1 -3,-1 -1,0 -1,0 -2,0 l 0,1 c 1,0 1,0 1,0 1,0 1,0 1,1 1,0 1,0 2,0 0,0 0,1 1,1 l 14,9 0,-11 z"
         id="path20"
         inkscape:connector-curvature="0"
         style="fill:#000000;fill-rule:nonzero" /><path
         d="m 768.91686,1036.5277 c 3,0 5,1 8,1 2,1 4,2 5,4 2,1 3,3 3,5 1,2 2,4 2,7 l 0,9 -35,0 0,-10 c 0,-2 0,-4 1,-6 1,-2 2,-4 3,-5 2,-2 3,-3 5,-4 3,0 5,-1 8,-1 z m 0,5 c -2,0 -4,0 -6,1 -2,0 -3,1 -4,2 -1,1 -2,2 -3,4 0,1 0,3 0,5 l 0,4 27,0 0,-3 c 0,-5 -1,-8 -4,-10 -2,-2 -5,-3 -10,-3 z m -9,-31 c 1,0 2,1 3,1 1,0 2,1 3,2 0,0 1,1 1,2 1,1 1,2 1,3 l 0,0 c 1,-3 2,-5 3,-6 2,-2 3,-3 6,-3 1,0 3,1 4,1 1,1 2,1 3,3 1,1 2,2 2,3 1,2 1,4 1,6 0,2 0,4 0,5 -1,2 -1,3 -2,4 l -4,0 c 1,-1 1,-3 2,-4 0,-2 0,-3 0,-5 0,-1 0,-2 0,-4 0,-1 -1,-1 -1,-2 -1,-1 -2,-1 -3,-2 0,0 -1,0 -2,0 -2,0 -2,0 -3,0 -1,1 -2,1 -2,2 -1,1 -1,2 -1,3 0,1 -1,2 -1,4 l 0,3 -3,0 0,-3 c 0,-1 0,-3 -1,-4 0,-1 0,-1 -1,-2 -1,-1 -1,-1 -2,-2 -1,0 -2,0 -3,0 -1,0 -1,0 -2,0 -1,1 -1,1 -2,2 0,0 0,1 -1,1 0,1 0,2 0,3 0,2 0,3 1,4 0,2 1,3 2,4 l -3,2 c -1,0 -1,-1 -1,-2 -1,-1 -1,-1 -2,-2 0,-1 0,-2 0,-3 -1,-1 -1,-2 -1,-3 0,-2 1,-3 1,-5 0,-1 1,-2 2,-3 1,-1 1,-1 3,-2 1,0 2,-1 3,-1 z"
         id="path22"
         inkscape:connector-curvature="0"
         style="fill:#000000;fill-rule:nonzero" /><path
         d="m 768.91686,1136.5277 c 3,0 6,1 8,1 2,1 4,2 6,4 1,1 2,3 3,5 1,2 1,5 1,7 l 0,9 -35,0 0,-10 c 0,-2 1,-4 1,-6 1,-2 2,-4 4,-5 1,-2 3,-3 5,-4 2,0 5,-1 7,-1 z m 0,5 c -2,0 -4,0 -6,1 -1,0 -3,1 -4,2 -1,1 -2,2 -2,4 -1,1 -1,3 -1,5 l 0,4 27,0 0,-3 c 0,-5 -1,-8 -3,-10 -3,-2 -6,-3 -11,-3 z m 18,-32 0,22 -4,0 -9,-8 c -1,-1 -2,-2 -3,-3 -1,-1 -2,-2 -3,-3 -1,0 -2,-1 -3,-1 -1,-1 -3,-1 -4,-1 -1,0 -1,0 -2,1 -1,0 -2,0 -2,1 -1,0 -1,1 -1,1 0,1 -1,2 -1,3 0,1 1,3 1,4 1,1 2,2 3,3 l -3,3 c -1,-1 -1,-2 -2,-2 0,-1 -1,-2 -1,-3 0,-1 -1,-1 -1,-2 0,-1 0,-2 0,-3 0,-2 0,-3 0,-4 1,-2 1,-3 2,-4 1,0 2,-1 3,-2 1,0 3,0 4,0 1,0 3,0 4,0 1,1 2,1 4,2 1,1 2,2 3,3 1,1 3,2 4,3 l 7,7 0,0 0,-17 4,0 z"
         id="path24"
         inkscape:connector-curvature="0"
         style="fill:#000000;fill-rule:nonzero" /><path
         d="m 768.91686,1229.5277 c 3,0 5,1 8,1 2,1 4,2 5,4 2,1 3,3 3,5 1,2 2,4 2,7 l 0,9 -35,0 0,-10 c 0,-2 0,-4 1,-6 1,-2 2,-4 3,-5 2,-2 3,-3 5,-4 3,0 5,-1 8,-1 z m 0,5 c -2,0 -4,0 -6,1 -2,0 -3,1 -4,2 -1,1 -2,2 -3,4 0,1 0,3 0,5 l 0,4 27,0 0,-3 c 0,-5 -1,-8 -4,-10 -2,-2 -5,-3 -10,-3 z m 18,-25 0,5 -22,0 c -1,0 -2,0 -2,0 -1,0 -2,0 -3,0 0,0 -1,0 -2,-1 -1,0 -1,0 -2,0 1,1 1,1 1,1 0,0 0,1 1,1 0,0 0,0 0,0 0,1 1,1 1,1 l 3,4 -3,2 -7,-9 0,-4 35,0 z"
         id="path26"
         inkscape:connector-curvature="0"
         style="fill:#000000;fill-rule:nonzero" /><path
         d="m 768.91686,1337.5277 c 3,0 5,0 8,1 2,1 4,2 5,3 2,2 3,4 3,6 1,2 2,4 2,7 l 0,8 -35,0 0,-9 c 0,-3 0,-5 1,-7 1,-2 2,-3 3,-5 2,-1 3,-2 6,-3 2,-1 4,-1 7,-1 z m 0,5 c -2,0 -4,0 -6,0 -2,1 -3,2 -4,3 -1,1 -2,2 -3,3 0,2 0,3 0,5 l 0,5 27,0 0,-4 c 0,-4 -1,-7 -4,-9 -2,-2 -5,-3 -10,-3 z m 0,-33 c 3,0 6,1 8,1 2,0 4,1 5,2 2,1 3,2 4,3 1,2 1,4 1,6 0,1 0,3 -1,4 -1,2 -2,3 -4,4 -1,1 -3,1 -5,2 -2,0 -5,1 -8,1 -3,0 -5,-1 -7,-1 -3,0 -4,-1 -6,-2 -1,-1 -3,-2 -3,-3 -1,-2 -2,-3 -2,-5 0,-2 1,-4 2,-5 0,-2 2,-3 3,-4 2,-1 3,-1 6,-2 2,0 4,-1 7,-1 z m 0,18 c 3,0 5,0 6,0 2,0 4,-1 5,-1 1,-1 2,-2 3,-2 0,-1 0,-2 0,-3 0,-2 0,-3 0,-4 -1,0 -2,-1 -3,-2 -1,0 -3,-1 -5,-1 -1,0 -3,0 -6,0 -2,0 -4,0 -6,0 -2,0 -3,1 -4,1 -2,1 -3,2 -3,2 -1,1 -1,2 -1,4 0,1 0,2 1,3 0,0 1,1 3,2 1,0 2,1 4,1 2,0 4,0 6,0 z"
         id="path28"
         inkscape:connector-curvature="0"
         style="fill:#000000;fill-rule:nonzero" /><path
         d="m 144.99999,1342.5277 -11,3 0,13 11,4 0,5 -35,-13 0,-4 35,-13 0,5 z m -15,5 -10,3 c 0,0 0,0 -1,1 0,0 -1,0 -1,0 -1,0 -1,0 -2,0 0,1 -1,1 -1,1 0,0 1,0 1,0 1,0 1,0 2,1 0,0 1,0 1,0 1,0 1,0 1,0 l 10,4 0,-10 z m -2,-34 c 2,0 5,0 7,0 2,1 4,1 6,2 1,1 2,2 3,4 1,1 1,3 1,5 0,2 0,3 -1,5 -1,1 -2,2 -3,3 -2,1 -4,2 -6,2 -2,0 -5,1 -7,1 -3,0 -6,-1 -8,-1 -2,0 -4,-1 -6,-2 -1,-1 -2,-2 -3,-3 -1,-2 -1,-3 -1,-5 0,-2 0,-4 1,-5 1,-2 2,-3 3,-4 2,-1 4,-1 6,-2 2,0 5,0 8,0 z m 0,17 c 2,0 4,0 6,0 2,0 3,-1 4,-1 1,-1 2,-1 3,-2 0,-1 1,-2 1,-3 0,-2 -1,-3 -1,-3 -1,-1 -2,-2 -3,-3 -1,0 -2,0 -4,-1 -2,0 -4,0 -6,0 -3,0 -5,0 -7,0 -1,1 -3,1 -4,1 -1,1 -2,2 -3,3 0,0 -1,1 -1,3 0,1 1,2 1,3 1,1 2,1 3,2 1,0 3,1 4,1 2,0 4,0 7,0 z"
         id="path30"
         inkscape:connector-curvature="0"
         style="fill:#000000;fill-rule:nonzero" /><path
         d="m 144.99999,1242.5277 -11,3 0,13 11,4 0,5 -35,-13 0,-4 35,-13 0,5 z m -15,5 -10,3 c 0,0 0,0 -1,1 0,0 -1,0 -1,0 -1,0 -1,0 -2,0 0,1 -1,1 -1,1 0,0 1,0 1,0 1,0 1,0 2,1 0,0 1,0 1,0 1,0 1,0 1,0 l 10,4 0,-10 z m 15,-27 0,4 -22,0 c 0,0 -1,0 -2,0 -1,0 -1,0 -2,0 -1,0 -2,0 -2,0 -1,0 -2,0 -2,0 0,0 0,1 0,1 1,0 1,0 1,0 0,1 0,1 1,1 0,0 0,1 0,1 l 3,4 -3,2 -7,-9 0,-4 35,0 z"
         id="path32"
         inkscape:connector-curvature="0"
         style="fill:#000000;fill-rule:nonzero" /><path
         d="m 144.99999,1142.5277 -11,3 0,13 11,4 0,5 -35,-13 0,-4 35,-13 0,5 z m -15,5 -10,3 c 0,0 0,0 -1,1 0,0 -1,0 -1,0 -1,0 -1,0 -2,0 0,1 -1,1 -1,1 0,0 1,0 1,0 1,0 1,0 2,1 0,0 1,0 1,0 1,0 1,0 1,0 l 10,4 0,-10 z m 15,-34 0,22 -4,0 -9,-9 c -1,-1 -2,-2 -3,-3 -1,-1 -2,-1 -3,-2 -1,-1 -2,-1 -3,-2 -1,0 -3,0 -4,0 -1,0 -2,0 -2,0 -1,1 -2,1 -2,1 -1,1 -1,1 -1,2 0,1 -1,2 -1,2 0,2 1,3 1,5 1,1 2,2 3,3 l -3,2 c -1,0 -1,-1 -2,-2 0,0 -1,-1 -1,-2 0,-1 -1,-2 -1,-3 0,-1 0,-2 0,-3 0,-1 0,-3 0,-4 1,-1 1,-2 2,-3 1,-1 2,-1 3,-2 1,0 3,-1 4,-1 1,0 3,1 4,1 1,1 2,1 3,2 2,1 3,1 4,2 1,1 2,3 4,4 l 7,6 0,0 0,-16 4,0 z"
         id="path34"
         inkscape:connector-curvature="0"
         style="fill:#000000;fill-rule:nonzero" /><path
         d="m 144.99999,1042.5277 -11,3 0,13 11,4 0,5 -35,-13 0,-4 35,-13 0,5 z m -15,5 -10,3 c 0,0 0,0 -1,1 0,0 -1,0 -1,0 -1,0 -1,0 -2,0 0,1 -1,1 -1,1 0,0 1,0 1,0 1,0 1,0 2,1 0,0 1,0 1,0 1,0 1,0 1,0 l 10,4 0,-10 z m -12,-33 c 2,0 3,0 4,1 1,0 1,1 2,1 1,1 1,2 2,3 0,1 1,2 1,3 l 0,0 c 0,-3 1,-5 3,-7 1,-1 3,-2 5,-2 2,0 3,0 4,1 2,0 3,1 4,2 0,1 1,3 2,4 0,2 0,4 0,6 0,2 0,3 0,5 0,1 -1,3 -1,4 l -4,0 c 0,-1 1,-3 1,-4 1,-2 1,-4 1,-5 0,-2 0,-3 -1,-4 0,-1 0,-2 -1,-2 -1,-1 -1,-2 -2,-2 -1,0 -2,0 -3,0 -1,0 -2,0 -3,0 -1,1 -1,1 -2,2 0,1 0,2 -1,3 0,1 0,2 0,4 l 0,3 -4,0 0,-3 c 0,-2 0,-3 0,-4 -1,-1 -1,-2 -2,-2 0,-1 -1,-2 -2,-2 0,0 -1,0 -2,0 -1,0 -2,0 -3,0 0,0 -1,1 -1,1 -1,1 -1,1 -1,2 0,1 -1,2 -1,3 0,1 1,3 1,4 1,1 1,3 2,4 l -3,2 c 0,-1 -1,-1 -1,-2 0,-1 -1,-2 -1,-2 0,-1 -1,-2 -1,-3 0,-1 0,-2 0,-3 0,-2 0,-4 0,-5 1,-1 1,-2 2,-3 1,-1 2,-2 3,-2 1,-1 2,-1 3,-1 z"
         id="path36"
         inkscape:connector-curvature="0"
         style="fill:#000000;fill-rule:nonzero" /><path
         d="m 144.99999,942.5277 -11,3 0,13 11,4 0,5 -35,-13 0,-4 35,-13 0,5 z m -15,5 -10,3 c 0,0 0,0 -1,1 0,0 -1,0 -1,0 -1,0 -1,0 -2,0 0,1 -1,1 -1,1 0,0 1,0 1,0 1,0 1,0 2,1 0,0 1,0 1,0 1,0 1,0 1,0 l 10,4 0,-10 z m 7,-36 0,5 8,0 0,4 -8,0 0,16 -4,0 -23,-15 0,-5 23,0 0,-5 4,0 z m -4,9 -8,0 c -1,0 -2,0 -3,0 -1,0 -2,0 -3,0 -1,0 -2,0 -2,0 -1,0 -2,0 -2,0 l 0,0 c 0,0 0,1 1,1 0,0 0,0 1,0 0,1 1,1 1,1 0,0 1,0 1,0 l 14,10 0,-12 z"
         id="path38"
         inkscape:connector-curvature="0"
         style="fill:#000000;fill-rule:nonzero" /><path
         d="m 144.99999,842.5277 -11,3 0,13 11,4 0,5 -35,-13 0,-4 35,-13 0,5 z m -15,5 -10,3 c 0,0 0,0 -1,1 0,0 -1,0 -1,0 -1,0 -1,0 -2,0 0,1 -1,1 -1,1 0,0 1,0 1,0 1,0 1,0 2,1 0,0 1,0 1,0 1,0 1,0 1,0 l 10,4 0,-10 z m -6,-23 c 0,-1 0,-3 0,-4 1,-2 1,-3 2,-4 1,-1 2,-2 3,-2 2,-1 3,-1 5,-1 2,0 3,0 5,1 1,0 2,1 3,2 1,1 2,3 3,4 0,2 0,3 0,5 0,1 0,2 0,3 0,1 0,1 0,2 0,1 0,1 -1,2 0,1 0,1 0,2 l -4,0 c 0,-1 0,-1 0,-2 1,-1 1,-1 1,-2 0,-1 1,-2 1,-3 0,0 0,-1 0,-2 0,-1 0,-2 -1,-3 0,-1 0,-2 -1,-3 -1,0 -1,-1 -2,-1 -1,0 -2,-1 -4,-1 -2,0 -4,1 -5,2 -1,2 -2,4 -2,7 0,0 0,0 0,1 0,0 1,1 1,1 0,1 0,1 0,2 0,0 0,1 0,1 l -1,2 -17,-1 0,-17 4,0 0,13 10,1 c 0,0 0,-1 0,-2 0,-1 0,-2 0,-3 z"
         id="path40"
         inkscape:connector-curvature="0"
         style="fill:#000000;fill-rule:nonzero" /><path
         d="m 144.99999,456.5277 0,4 -31,0 0,10 -4,0 0,-24 4,0 0,10 31,0 z m 0,-38 0,6 -15,8 15,9 0,4 -18,-11 -17,10 0,-4 13,-8 -13,-8 0,-5 17,10 18,-11 z"
         id="path42"
         inkscape:connector-curvature="0"
         style="fill:#000000;fill-rule:nonzero" /><path
         d="m 130.99999,555.5277 14,0 0,4 -35,0 0,-8 c 0,-4 1,-7 3,-9 1,-2 4,-3 7,-3 1,0 3,0 4,0 1,1 2,1 2,2 1,0 2,1 2,2 1,1 1,2 1,2 l 16,-9 0,5 -14,9 0,5 z m -4,0 0,-4 c 0,-1 0,-2 -1,-3 0,-1 0,-2 -1,-3 0,-1 -1,-1 -2,-1 -1,-1 -2,-1 -3,-1 -1,0 -2,0 -3,1 0,0 -1,1 -2,1 0,1 0,2 -1,3 0,1 0,2 0,3 l 0,4 13,0 z m 18,-46 0,5 -15,8 15,9 0,4 -18,-10 -17,10 0,-5 13,-8 -13,-8 0,-4 17,10 18,-11 z"
         id="path44"
         inkscape:connector-curvature="0"
         style="fill:#000000;fill-rule:nonzero" /><path
         d="m 126.99999,371.5277 0,-11 17,0 c 0,1 0,2 1,3 0,0 0,1 0,2 0,1 0,2 0,3 0,1 1,2 1,4 0,2 -1,4 -2,6 -1,2 -2,4 -3,5 -2,1 -4,2 -6,3 -2,1 -5,1 -7,1 -3,0 -6,0 -8,-1 -2,-1 -4,-2 -5,-3 -2,-2 -3,-4 -4,-6 -1,-2 -1,-4 -1,-7 0,-2 0,-3 0,-5 1,-2 1,-3 2,-5 l 4,2 c -1,1 -1,1 -1,2 0,1 0,1 -1,2 0,1 0,1 0,2 0,1 0,2 0,2 0,2 0,4 1,5 0,2 1,3 2,4 2,1 3,2 5,2 2,1 4,1 6,1 2,0 4,0 5,0 2,-1 4,-1 5,-2 1,-1 2,-3 3,-4 0,-2 1,-3 1,-6 0,0 0,-1 0,-1 0,-1 -1,-2 -1,-2 0,-1 0,-1 0,-1 0,-1 0,-1 0,-2 l -10,0 0,7 -4,0 z m 18,-45 0,5 -29,17 0,0 c 2,0 3,0 4,-1 1,0 2,0 3,0 1,0 2,0 3,0 l 19,0 0,5 -35,0 0,-6 29,-16 0,0 c -1,0 -2,0 -4,0 0,0 -1,0 -1,0 -1,0 -1,0 -2,0 0,0 -1,0 -1,0 -1,0 -1,0 -2,0 l -19,0 0,-4 35,0 z m -18,-35 c 3,0 6,0 8,1 2,1 4,2 6,3 1,2 2,3 3,5 1,3 1,5 1,8 l 0,8 -35,0 0,-9 c 0,-3 1,-5 1,-7 1,-2 2,-4 4,-5 1,-1 3,-2 5,-3 2,-1 5,-1 7,-1 z m 1,4 c -3,0 -5,1 -6,1 -2,1 -4,1 -5,2 -1,1 -2,3 -2,4 -1,2 -1,3 -1,5 l 0,5 27,0 0,-4 c 0,-4 -1,-7 -3,-9 -3,-3 -6,-4 -10,-4 z"
         id="path46"
         inkscape:connector-curvature="0"
         style="fill:#000000;fill-rule:nonzero" /><path
         d="m 109.99999,249.5277 0,-4 35,11 0,5 -35,11 0,-4 22,-7 c 2,-1 3,-1 4,-2 2,0 3,0 4,0 -1,-1 -2,-1 -4,-1 -1,-1 -3,-1 -4,-2 l -22,-7 z m 35,-19 0,13 -3,0 -1,-4 -28,0 0,4 -3,0 0,-13 3,0 0,4 28,0 1,-4 3,0 z m 0,-32 0,5 -29,16 0,1 c 1,0 3,-1 4,-1 1,0 2,0 3,0 1,0 2,0 3,0 l 19,0 0,5 -35,0 0,-6 29,-16 0,0 c -2,0 -3,0 -4,0 0,0 -1,0 -1,0 -1,0 -1,0 -2,0 -1,0 -1,0 -2,0 0,0 -1,0 -1,0 l -19,0 0,-4 35,0 z"
         id="path48"
         inkscape:connector-curvature="0"
         style="fill:#000000;fill-rule:nonzero" /><path
         d="m 751.91686,464.5277 0,-4 32,11 0,4 -32,10 0,-4 20,-6 c 1,-1 3,-1 4,-1 1,-1 2,-1 3,-1 -1,0 -2,-1 -3,-1 -1,0 -3,-1 -4,-1 l -20,-7 z m 0,-8 0,-9 c 0,-2 0,-3 0,-5 1,-1 1,-2 2,-3 0,-1 1,-2 2,-2 1,-1 2,-1 4,-1 1,0 2,0 2,0 1,1 2,1 3,2 0,0 1,1 1,1 0,1 1,2 1,3 l 0,0 c 0,-1 0,-2 1,-3 0,-1 1,-1 1,-2 1,-1 1,-1 2,-1 1,-1 2,-1 3,-1 2,0 3,0 4,1 1,0 2,1 3,2 1,1 2,2 2,3 0,1 1,3 1,4 l 0,11 -32,0 z m 13,-4 0,-6 c 0,-1 0,-2 0,-3 0,0 0,-1 -1,-2 0,0 -1,-1 -2,-1 0,0 -1,0 -2,0 -2,0 -3,0 -4,2 0,1 -1,2 -1,5 l 0,5 10,0 z m 4,0 11,0 0,-6 c 0,-1 0,-2 0,-3 -1,-1 -1,-2 -1,-2 -1,-1 -2,-1 -2,-1 -1,-1 -2,-1 -3,-1 -1,0 -1,0 -2,1 -1,0 -1,0 -2,1 0,0 -1,1 -1,2 0,1 0,2 0,3 l 0,6 z m 15,-42 -10,3 0,12 10,4 0,4 -32,-12 0,-4 32,-11 0,4 z m -14,4 -9,4 c 0,0 -1,0 -1,0 0,0 -1,0 -1,0 -1,0 -1,1 -1,1 -1,0 -1,0 -2,0 1,0 1,0 2,0 0,1 0,1 1,1 0,0 1,0 1,0 0,0 1,0 1,1 l 9,3 0,-10 z m 14,-22 0,4 -29,0 0,9 -3,0 0,-22 3,0 0,9 29,0 z"
         id="path50"
         inkscape:connector-curvature="0"
         style="fill:#000000;fill-rule:nonzero" /><path
         d="m 126.99999,755.5277 c 3,0 6,0 8,1 2,1 4,2 5,3 2,2 3,3 4,5 1,2 1,5 1,8 l 0,8 -35,0 0,-9 c 0,-3 1,-5 1,-7 1,-2 2,-4 4,-5 1,-1 3,-2 5,-3 2,-1 4,-1 7,-1 z m 0,4 c -2,0 -4,1 -6,1 -1,1 -3,1 -4,2 -1,1 -2,3 -2,4 -1,2 -1,3 -1,5 l 0,5 27,0 0,-4 c 0,-4 -1,-7 -3,-10 -3,-2 -6,-3 -11,-3 z m 18,-32 -11,3 0,13 11,4 0,5 -35,-13 0,-4 35,-13 0,5 z m -15,5 -10,3 c 0,0 0,1 -1,1 0,0 -1,0 -1,0 -1,0 -1,0 -2,1 0,0 -1,0 -1,0 0,0 1,0 1,0 1,0 1,1 2,1 0,0 1,0 1,0 1,0 1,0 1,0 l 10,4 0,-10 z m -16,-29 c 0,2 0,4 1,5 0,1 1,2 2,3 2,1 3,2 5,3 1,0 3,0 6,0 2,0 4,0 5,0 2,-1 4,-1 5,-2 1,-1 2,-2 3,-4 0,-1 0,-3 0,-5 0,-1 0,-2 0,-4 0,-1 0,-2 -1,-3 l 4,0 c 0,0 0,1 1,1 0,1 0,2 0,2 0,1 0,2 0,2 0,1 0,2 0,3 0,3 0,5 -1,7 -1,2 -2,3 -4,4 -1,2 -3,3 -5,3 -2,1 -5,1 -7,1 -3,0 -6,0 -8,-1 -2,-1 -4,-2 -5,-3 -2,-1 -3,-3 -4,-5 -1,-2 -1,-4 -1,-7 0,-1 0,-3 0,-5 1,-1 1,-3 2,-4 l 3,2 c 0,1 0,2 -1,3 0,1 0,3 0,4 z"
         id="path52"
         inkscape:connector-curvature="0"
         style="fill:#000000;fill-rule:nonzero" /><path
         d="m 109.99999,659.5277 0,-5 21,-5 c 0,0 1,0 2,-1 1,0 2,0 3,0 1,-1 1,-1 2,-1 1,0 2,0 2,0 0,0 -1,0 -2,0 -1,-1 -1,-1 -2,-1 -1,0 -2,0 -2,0 -1,0 -2,-1 -3,-1 l -21,-4 0,-5 35,9 0,4 -22,6 c -1,0 -2,0 -3,1 -1,0 -2,0 -2,0 -1,0 -2,1 -3,1 1,0 2,0 3,0 0,0 1,1 2,1 1,0 2,0 3,0 l 22,6 0,5 -35,9 0,-5 21,-5 c 1,0 2,0 3,-1 0,0 1,0 2,0 1,0 1,0 2,0 1,-1 2,-1 2,-1 0,0 -1,0 -2,0 -1,0 -2,0 -2,0 -1,-1 -2,-1 -3,-1 -1,0 -2,0 -2,-1 l -21,-5 z m 35,-52 0,5 -17,11 3,3 14,0 0,5 -35,0 0,-5 18,0 -4,-3 -14,-10 0,-5 15,12 20,-13 z m -25,-25 c 2,0 3,0 4,0 2,1 3,2 4,3 1,0 2,2 2,3 1,2 1,4 1,7 l 0,3 14,0 0,5 -35,0 0,-9 c 0,-2 0,-4 1,-6 0,-1 1,-2 2,-3 1,-1 2,-2 3,-3 1,0 3,0 4,0 z m 8,16 0,-3 c 0,-1 -1,-3 -1,-4 0,-1 0,-2 -1,-2 -1,-1 -1,-2 -2,-2 -1,0 -2,-1 -3,-1 -3,0 -4,1 -5,2 -1,2 -2,4 -2,6 l 0,4 14,0 z"
         id="path54"
         inkscape:connector-curvature="0"
         style="fill:#000000;fill-rule:nonzero" /></g><rect
       y="1223.126"
       x="153.12593"
       height="493.74817"
       width="593.74817"
       id="rect4104"
       style="fill:none;stroke:#000000;stroke-width:6.25186014;stroke-linecap:butt;stroke-linejoin:round;stroke-miterlimit:4;stroke-opacity:1;stroke-dasharray:none" /></g><g
     id="copper1"
     transform="translate(0,2.242131e-5)"><rect
       ry="12.012015"
       rx="12.012015"
       y="1310.0001"
       x="-1.9566585e-05"
       height="80"
       width="100.00001"
       id="rect3205"
       style="fill:#f7bd13;fill-opacity:1;stroke:none" /><rect
       style="fill:#f7bd13;fill-opacity:1;stroke:none"
       id="rect3997"
       width="100.00001"
       height="80"
       x="-1.9566585e-05"
       y="1210.0001"
       rx="12.012015"
       ry="12.012015" /><rect
       ry="12.012015"
       rx="12.012015"
       y="1110.0001"
       x="-1.9566585e-05"
       height="80"
       width="100.00001"
       id="rect3999"
       style="fill:#f7bd13;fill-opacity:1;stroke:none" /><rect
       style="fill:#f7bd13;fill-opacity:1;stroke:none"
       id="rect4001"
       width="100.00001"
       height="80"
       x="-1.9566585e-05"
       y="1010.0001"
       rx="12.012015"
       ry="12.012015" /><rect
       ry="12.012015"
       rx="12.012015"
       y="910.00006"
       x="-1.9566585e-05"
       height="80"
       width="100.00001"
       id="rect4003"
       style="fill:#f7bd13;fill-opacity:1;stroke:none" /><rect
       style="fill:#f7bd13;fill-opacity:1;stroke:none"
       id="rect4005"
       width="100.00001"
       height="80"
       x="-1.9566585e-05"
       y="810.00006"
       rx="12.012015"
       ry="12.012015" /><rect
       ry="12.012015"
       rx="12.012015"
       y="710.00006"
       x="-1.9566585e-05"
       height="80"
       width="100.00001"
       id="rect4007"
       style="fill:#f7bd13;fill-opacity:1;stroke:none" /><rect
       style="fill:#f7bd13;fill-opacity:1;stroke:none"
       id="rect4009"
       width="100.00001"
       height="80"
       x="-1.9566585e-05"
       y="610.00006"
       rx="12.012015"
       ry="12.012015" /><rect
       ry="12.012015"
       rx="12.012015"
       y="510.00006"
       x="-1.9566585e-05"
       height="80"
       width="100.00001"
       id="rect4011"
       style="fill:#f7bd13;fill-opacity:1;stroke:none" /><rect
       style="fill:#f7bd13;fill-opacity:1;stroke:none"
       id="rect4013"
       width="100.00001"
       height="80"
       x="-1.9566585e-05"
       y="410.00006"
       rx="12.012015"
       ry="12.012015" /><rect
       ry="12.012015"
       rx="12.012015"
       y="210.00005"
       x="-1.9566585e-05"
       height="80"
       width="100.00001"
       id="rect4015"
       style="fill:#f7bd13;fill-opacity:1;stroke:none" /><rect
       style="fill:#f7bd13;fill-opacity:1;stroke:none"
       id="rect4017"
       width="100.00001"
       height="80"
       x="-1.9566585e-05"
       y="310.00006"
       rx="12.012015"
       ry="12.012015" /><rect
       style="fill:#f7bd13;fill-opacity:1;stroke:none"
       id="rect4019"
       width="100.00001"
       height="80"
       x="800.00018"
       y="1310.0001"
       rx="12.012015"
       ry="12.012015" /><rect
       ry="12.012015"
       rx="12.012015"
       y="1210.0001"
       x="800.00018"
       height="80"
       width="100.00001"
       id="rect4021"
       style="fill:#f7bd13;fill-opacity:1;stroke:none" /><rect
       style="fill:#f7bd13;fill-opacity:1;stroke:none"
       id="rect4023"
       width="100.00001"
       height="80"
       x="800.00018"
       y="1110.0001"
       rx="12.012015"
       ry="12.012015" /><rect
       ry="12.012015"
       rx="12.012015"
       y="1010.0001"
       x="800.00018"
       height="80"
       width="100.00001"
       id="rect4025"
       style="fill:#f7bd13;fill-opacity:1;stroke:none" /><rect
       style="fill:#f7bd13;fill-opacity:1;stroke:none"
       id="rect4027"
       width="100.00001"
       height="80"
       x="800.00018"
       y="910.00006"
       rx="12.012015"
       ry="12.012015" /><rect
       ry="12.012015"
       rx="12.012015"
       y="810.00006"
       x="800.00018"
       height="80"
       width="100.00001"
       id="rect4029"
       style="fill:#f7bd13;fill-opacity:1;stroke:none" /><rect
       style="fill:#f7bd13;fill-opacity:1;stroke:none"
       id="rect4031"
       width="100.00001"
       height="80"
       x="800.00018"
       y="710.00006"
       rx="12.012015"
       ry="12.012015" /><rect
       ry="12.012015"
       rx="12.012015"
       y="610.00006"
       x="800.00018"
       height="80"
       width="100.00001"
       id="rect4033"
       style="fill:#f7bd13;fill-opacity:1;stroke:none" /><rect
       style="fill:#f7bd13;fill-opacity:1;stroke:none"
       id="rect4035"
       width="100.00001"
       height="80"
       x="800.00018"
       y="510.00006"
       rx="12.012015"
       ry="12.012015" /><rect
       ry="12.012015"
       rx="12.012015"
       y="410.00006"
       x="800.00018"
       height="80"
       width="100.00001"
       id="rect4037"
       style="fill:#f7bd13;fill-opacity:1;stroke:none" /><rect
       style="fill:#f7bd13;fill-opacity:1;stroke:none"
       id="rect4039"
       width="100.00001"
       height="80"
       x="800.00018"
       y="210.00005"
       rx="12.012015"
       ry="12.012015" /><rect
       ry="12.012015"
       rx="12.012015"
       y="310.00006"
       x="800.00018"
       height="80"
       width="100.00001"
       id="rect4041"
       style="fill:#f7bd13;fill-opacity:1;stroke:none" /><rect
       ry="0"
       rx="0"
       y="215.00005"
       x="164.99998"
       height="70"
       width="70"
       id="rect4045"
       style="fill:#f7bd13;fill-opacity:1;stroke:none" /><rect
       style="fill:#f7bd13;fill-opacity:1;stroke:none"
       id="rect4099"
       width="70"
       height="70"
       x="164.99998"
       y="515.00006"
       rx="0"
       ry="0" /><rect
       ry="0"
       rx="0"
       y="927.50006"
       x="177.49998"
       height="45.000004"
       width="45.000004"
       id="rect4101"
       style="fill:#f7bd13;fill-opacity:1;stroke:none" /><rect
       style="fill:#f7bd13;fill-opacity:1;stroke:none"
       id="rect4103"
       width="45.000004"
       height="45.000004"
       x="677.5"
       y="227.50005"
       rx="0"
       ry="0" /><rect
       ry="0"
       rx="0"
       y="328.00006"
       x="677.5"
       height="45.000004"
       width="45.000004"
       id="rect4105"
       style="fill:#f7bd13;fill-opacity:1;stroke:none" /><rect
       style="fill:#f7bd13;fill-opacity:1;stroke:none"
       id="rect4107"
       width="60.000004"
       height="70"
       x="380"
       y="118.00005"
       rx="0"
       ry="0" /><rect
       ry="0"
       rx="0"
       y="118.00005"
       x="460"
       height="70"
       width="60.000004"
       id="rect4109"
       style="fill:#f7bd13;fill-opacity:1;stroke:none" /></g></svg>